<svg xmlns="http://www.w3.org/2000/svg" xmlns:xlink="http://www.w3.org/1999/xlink" width="1200" zoomAndPan="magnify" viewBox="0 0 900 262.499992" height="350" preserveAspectRatio="xMidYMid meet" version="1.0"><defs><g/><clipPath id="863346f935"><path d="M 0.855469 0 L 899.144531 0 L 899.144531 262 L 0.855469 262 Z M 0.855469 0 " clip-rule="nonzero"/></clipPath><clipPath id="f4e963afa3"><path d="M 186.074219 59.191406 L 195 59.191406 L 195 67 L 186.074219 67 Z M 186.074219 59.191406 " clip-rule="nonzero"/></clipPath><clipPath id="1c04a9efc2"><path d="M 186.078125 122.382812 L 195 122.382812 L 195 130 L 186.078125 130 Z M 186.078125 122.382812 " clip-rule="nonzero"/></clipPath><clipPath id="8656721128"><path d="M 192 239 L 201 239 L 201 245.460938 L 192 245.460938 Z M 192 239 " clip-rule="nonzero"/></clipPath><clipPath id="68e9916825"><path d="M 166 19 L 173 19 L 173 29.011719 L 166 29.011719 Z M 166 19 " clip-rule="nonzero"/></clipPath><clipPath id="0e7b2ef1ad"><path d="M 195 14.789062 L 201 14.789062 L 201 26 L 195 26 Z M 195 14.789062 " clip-rule="nonzero"/></clipPath><clipPath id="be80d6e0af"><path d="M 195 177.613281 L 198.363281 177.613281 L 198.363281 181 L 195 181 Z M 195 177.613281 " clip-rule="nonzero"/></clipPath><clipPath id="5d526abf1a"><path d="M 195 182 L 198.363281 182 L 198.363281 186 L 195 186 Z M 195 182 " clip-rule="nonzero"/></clipPath><clipPath id="3514fe097d"><path d="M 195 187 L 198.363281 187 L 198.363281 190.335938 L 195 190.335938 Z M 195 187 " clip-rule="nonzero"/></clipPath><clipPath id="1d48142d4c"><path d="M 496.707031 92.28125 L 568.570312 92.28125 L 568.570312 164 L 496.707031 164 Z M 496.707031 92.28125 " clip-rule="nonzero"/></clipPath><clipPath id="0773d69a5e"><path d="M 532.476562 92.28125 L 532.636719 92.28125 C 552.390625 92.28125 568.40625 108.296875 568.40625 128.050781 C 568.40625 147.804688 552.390625 163.820312 532.636719 163.820312 L 532.476562 163.820312 C 512.722656 163.820312 496.707031 147.804688 496.707031 128.050781 C 496.707031 108.296875 512.722656 92.28125 532.476562 92.28125 Z M 532.476562 92.28125 " clip-rule="nonzero"/></clipPath><clipPath id="465417965f"><path d="M 201 21 L 497 21 L 497 129 L 201 129 Z M 201 21 " clip-rule="nonzero"/></clipPath><clipPath id="559d3d0781"><path d="M 200.648438 19.164062 L 499.40625 126.320312 L 497.890625 130.550781 L 199.132812 23.390625 Z M 200.648438 19.164062 " clip-rule="nonzero"/></clipPath><clipPath id="afafffbafe"><path d="M 201.324219 21.710938 L 201.074219 22.417969 L 339.042969 71.902344 L 339.292969 71.199219 Z M 358.863281 78.214844 L 358.609375 78.921875 L 496.578125 128.40625 L 496.832031 127.703125 Z M 358.863281 78.214844 " clip-rule="nonzero"/></clipPath><clipPath id="3abf087c96"><path d="M 201 64 L 497 64 L 497 129 L 201 129 Z M 201 64 " clip-rule="nonzero"/></clipPath><clipPath id="7bf90905fd"><path d="M 200.261719 62.0625 L 498.929688 125.925781 L 497.988281 130.320312 L 199.324219 66.457031 Z M 200.261719 62.0625 " clip-rule="nonzero"/></clipPath><clipPath id="bc99f4003b"><path d="M 201.273438 64.5 L 201.117188 65.230469 L 338.707031 94.652344 L 338.863281 93.917969 Z M 359.191406 98.265625 L 359.035156 99 L 496.628906 128.417969 L 496.785156 127.6875 Z M 359.191406 98.265625 " clip-rule="nonzero"/></clipPath><clipPath id="20c1927b44"><path d="M 359.347656 127.679688 L 496.707031 127.679688 L 496.707031 128.429688 L 359.347656 128.429688 Z M 201.199219 127.679688 L 338.558594 127.679688 L 338.558594 128.429688 L 201.199219 128.429688 Z M 201.199219 127.679688 " clip-rule="nonzero"/></clipPath><clipPath id="e1f845527e"><path d="M 201 127 L 497 127 L 497 241 L 201 241 Z M 201 127 " clip-rule="nonzero"/></clipPath><clipPath id="55357af11d"><path d="M 198.902344 238.152344 L 497.8125 124.914062 L 499.402344 129.113281 L 200.492188 242.351562 Z M 198.902344 238.152344 " clip-rule="nonzero"/></clipPath><clipPath id="c04916bc49"><path d="M 201.070312 239.652344 L 201.335938 240.351562 L 339.367188 188.058594 L 339.101562 187.359375 Z M 358.542969 179.992188 L 358.808594 180.695312 L 496.839844 128.402344 L 496.574219 127.703125 Z M 358.542969 179.992188 " clip-rule="nonzero"/></clipPath><clipPath id="450217b328"><path d="M 339.277344 126 L 351 126 L 351 134 L 339.277344 134 Z M 339.277344 126 " clip-rule="nonzero"/></clipPath><clipPath id="4b0ca473f9"><path d="M 339.277344 92 L 351 92 L 351 101 L 339.277344 101 Z M 339.277344 92 " clip-rule="nonzero"/></clipPath><clipPath id="da4eed673c"><path d="M 339.277344 180 L 351 180 L 351 189 L 339.277344 189 Z M 339.277344 180 " clip-rule="nonzero"/></clipPath><clipPath id="196329774d"><path d="M 350 184 L 358.742188 184 L 358.742188 190.285156 L 350 190.285156 Z M 350 184 " clip-rule="nonzero"/></clipPath><clipPath id="1183302b8f"><path d="M 346 149.546875 L 349 149.546875 L 349 153 L 346 153 Z M 346 149.546875 " clip-rule="nonzero"/></clipPath><clipPath id="8bc498f4cf"><path d="M 346 159 L 349 159 L 349 162.273438 L 346 162.273438 Z M 346 159 " clip-rule="nonzero"/></clipPath><clipPath id="8227740d58"><path d="M 512 123 L 521.933594 123 L 521.933594 135 L 512 135 Z M 512 123 " clip-rule="nonzero"/></clipPath><clipPath id="9354072eeb"><path d="M 701 122.382812 L 710 122.382812 L 710 131 L 701 131 Z M 701 122.382812 " clip-rule="nonzero"/></clipPath><clipPath id="8cd700309f"><path d="M 734 122.382812 L 743.074219 122.382812 L 743.074219 134.359375 L 734 134.359375 Z M 734 122.382812 " clip-rule="nonzero"/></clipPath></defs><g clip-path="url(#863346f935)"><path fill="#ffffff" d="M 0.855469 0 L 899.144531 0 L 899.144531 262 L 0.855469 262 Z M 0.855469 0 " fill-opacity="1" fill-rule="nonzero"/><path fill="#ffffff" d="M 0.855469 0 L 899.144531 0 L 899.144531 262 L 0.855469 262 Z M 0.855469 0 " fill-opacity="1" fill-rule="nonzero"/></g><g clip-path="url(#f4e963afa3)"><path fill="#000000" d="M 193.765625 60.125 C 193.246094 60.222656 193.050781 60.613281 193.050781 60.921875 C 193.050781 61.3125 193.359375 61.445312 193.585938 61.445312 C 194.074219 61.445312 194.414062 61.019531 194.414062 60.582031 C 194.414062 59.898438 193.632812 59.589844 192.953125 59.589844 C 191.964844 59.589844 191.410156 60.566406 191.265625 60.875 C 190.894531 59.65625 189.886719 59.589844 189.59375 59.589844 C 187.941406 59.589844 187.0625 61.71875 187.0625 62.078125 C 187.0625 62.144531 187.128906 62.222656 187.242188 62.222656 C 187.371094 62.222656 187.40625 62.125 187.4375 62.0625 C 187.988281 60.257812 189.074219 59.914062 189.546875 59.914062 C 190.277344 59.914062 190.421875 60.597656 190.421875 60.988281 C 190.421875 61.347656 190.324219 61.71875 190.128906 62.5 L 189.578125 64.726562 C 189.335938 65.703125 188.863281 66.597656 188.003906 66.597656 C 187.921875 66.597656 187.519531 66.597656 187.175781 66.386719 C 187.761719 66.273438 187.890625 65.785156 187.890625 65.589844 C 187.890625 65.265625 187.648438 65.070312 187.339844 65.070312 C 186.949219 65.070312 186.527344 65.410156 186.527344 65.933594 C 186.527344 66.613281 187.292969 66.921875 187.988281 66.921875 C 188.765625 66.921875 189.320312 66.304688 189.660156 65.640625 C 189.917969 66.597656 190.730469 66.921875 191.332031 66.921875 C 192.984375 66.921875 193.863281 64.792969 193.863281 64.4375 C 193.863281 64.355469 193.796875 64.289062 193.699219 64.289062 C 193.554688 64.289062 193.539062 64.371094 193.488281 64.5 C 193.050781 65.933594 192.109375 66.597656 191.378906 66.597656 C 190.8125 66.597656 190.503906 66.175781 190.503906 65.507812 C 190.503906 65.152344 190.566406 64.890625 190.828125 63.816406 L 191.394531 61.605469 C 191.640625 60.628906 192.191406 59.914062 192.9375 59.914062 C 192.96875 59.914062 193.421875 59.914062 193.765625 60.125 Z M 193.765625 60.125 " fill-opacity="1" fill-rule="nonzero"/></g><path fill="#000000" d="M 198.699219 61.238281 C 198.699219 60.953125 198.683594 60.9375 198.496094 60.9375 C 197.96875 61.574219 197.171875 61.777344 196.414062 61.804688 C 196.371094 61.804688 196.304688 61.804688 196.292969 61.832031 C 196.277344 61.859375 196.277344 61.886719 196.277344 62.171875 C 196.699219 62.171875 197.402344 62.089844 197.941406 61.765625 L 197.941406 68.910156 C 197.941406 69.382812 197.914062 69.546875 196.75 69.546875 L 196.347656 69.546875 L 196.347656 69.898438 C 196.996094 69.882812 197.671875 69.871094 198.320312 69.871094 C 198.96875 69.871094 199.644531 69.882812 200.292969 69.898438 L 200.292969 69.546875 L 199.890625 69.546875 C 198.726562 69.546875 198.699219 69.398438 198.699219 68.910156 Z M 198.699219 61.238281 " fill-opacity="1" fill-rule="nonzero"/><g clip-path="url(#1c04a9efc2)"><path fill="#000000" d="M 193.769531 123.089844 C 193.25 123.183594 193.054688 123.574219 193.054688 123.882812 C 193.054688 124.273438 193.363281 124.40625 193.589844 124.40625 C 194.078125 124.40625 194.417969 123.980469 194.417969 123.542969 C 194.417969 122.859375 193.640625 122.550781 192.957031 122.550781 C 191.96875 122.550781 191.417969 123.527344 191.269531 123.835938 C 190.898438 122.617188 189.890625 122.550781 189.601562 122.550781 C 187.945312 122.550781 187.070312 124.679688 187.070312 125.039062 C 187.070312 125.105469 187.132812 125.1875 187.246094 125.1875 C 187.378906 125.1875 187.410156 125.089844 187.441406 125.023438 C 187.992188 123.21875 189.082031 122.875 189.550781 122.875 C 190.28125 122.875 190.425781 123.558594 190.425781 123.949219 C 190.425781 124.308594 190.328125 124.679688 190.136719 125.460938 L 189.582031 127.691406 C 189.339844 128.664062 188.871094 129.558594 188.007812 129.558594 C 187.929688 129.558594 187.523438 129.558594 187.183594 129.347656 C 187.765625 129.234375 187.894531 128.746094 187.894531 128.550781 C 187.894531 128.226562 187.652344 128.03125 187.34375 128.03125 C 186.957031 128.03125 186.535156 128.371094 186.535156 128.894531 C 186.535156 129.574219 187.296875 129.886719 187.992188 129.886719 C 188.773438 129.886719 189.324219 129.265625 189.664062 128.601562 C 189.925781 129.558594 190.734375 129.886719 191.335938 129.886719 C 192.992188 129.886719 193.867188 127.753906 193.867188 127.398438 C 193.867188 127.316406 193.800781 127.25 193.703125 127.25 C 193.558594 127.25 193.542969 127.332031 193.492188 127.460938 C 193.054688 128.894531 192.113281 129.558594 191.382812 129.558594 C 190.816406 129.558594 190.507812 129.136719 190.507812 128.46875 C 190.507812 128.113281 190.574219 127.851562 190.832031 126.777344 L 191.402344 124.566406 C 191.644531 123.59375 192.195312 122.875 192.941406 122.875 C 192.972656 122.875 193.429688 122.875 193.769531 123.089844 Z M 193.769531 123.089844 " fill-opacity="1" fill-rule="nonzero"/></g><path fill="#000000" d="M 200.746094 130.757812 L 200.503906 130.757812 C 200.367188 131.722656 200.257812 131.882812 200.203125 131.964844 C 200.136719 132.074219 199.164062 132.074219 198.972656 132.074219 L 196.378906 132.074219 C 196.863281 131.542969 197.8125 130.582031 198.960938 129.46875 C 199.785156 128.683594 200.746094 127.761719 200.746094 126.421875 C 200.746094 124.820312 199.476562 123.898438 198.054688 123.898438 C 196.566406 123.898438 195.660156 125.214844 195.660156 126.433594 C 195.660156 126.964844 196.054688 127.03125 196.214844 127.03125 C 196.351562 127.03125 196.757812 126.949219 196.757812 126.476562 C 196.757812 126.054688 196.40625 125.933594 196.214844 125.933594 C 196.132812 125.933594 196.054688 125.945312 196 125.972656 C 196.257812 124.820312 197.039062 124.25 197.867188 124.25 C 199.042969 124.25 199.8125 125.1875 199.8125 126.421875 C 199.8125 127.601562 199.121094 128.617188 198.351562 129.496094 L 195.660156 132.546875 L 195.660156 132.859375 L 200.421875 132.859375 Z M 200.746094 130.757812 " fill-opacity="1" fill-rule="nonzero"/><path fill="#000000" d="M 191.234375 236.101562 C 190.714844 236.199219 190.523438 236.589844 190.523438 236.898438 C 190.523438 237.289062 190.832031 237.417969 191.058594 237.417969 C 191.542969 237.417969 191.882812 236.996094 191.882812 236.558594 C 191.882812 235.875 191.105469 235.566406 190.425781 235.566406 C 189.433594 235.566406 188.882812 236.539062 188.738281 236.851562 C 188.363281 235.628906 187.359375 235.566406 187.066406 235.566406 C 185.410156 235.566406 184.535156 237.695312 184.535156 238.054688 C 184.535156 238.117188 184.601562 238.199219 184.714844 238.199219 C 184.84375 238.199219 184.875 238.101562 184.910156 238.035156 C 185.460938 236.230469 186.546875 235.890625 187.019531 235.890625 C 187.746094 235.890625 187.894531 236.574219 187.894531 236.964844 C 187.894531 237.320312 187.796875 237.695312 187.601562 238.476562 L 187.050781 240.703125 C 186.808594 241.679688 186.335938 242.574219 185.476562 242.574219 C 185.394531 242.574219 184.988281 242.574219 184.648438 242.363281 C 185.234375 242.25 185.363281 241.761719 185.363281 241.566406 C 185.363281 241.242188 185.121094 241.046875 184.8125 241.046875 C 184.421875 241.046875 184 241.386719 184 241.90625 C 184 242.589844 184.761719 242.898438 185.460938 242.898438 C 186.238281 242.898438 186.789062 242.28125 187.132812 241.613281 C 187.390625 242.574219 188.203125 242.898438 188.800781 242.898438 C 190.457031 242.898438 191.332031 240.769531 191.332031 240.410156 C 191.332031 240.328125 191.269531 240.265625 191.171875 240.265625 C 191.023438 240.265625 191.007812 240.347656 190.960938 240.476562 C 190.523438 241.90625 189.582031 242.574219 188.851562 242.574219 C 188.28125 242.574219 187.976562 242.152344 187.976562 241.484375 C 187.976562 241.125 188.039062 240.867188 188.300781 239.792969 L 188.867188 237.582031 C 189.109375 236.605469 189.660156 235.890625 190.410156 235.890625 C 190.441406 235.890625 190.894531 235.890625 191.234375 236.101562 Z M 191.234375 236.101562 " fill-opacity="1" fill-rule="nonzero"/><g clip-path="url(#8656721128)"><path fill="#000000" d="M 195.359375 241.203125 C 195.386719 241.121094 195.722656 240.445312 196.222656 240.011719 C 196.574219 239.6875 197.035156 239.46875 197.5625 239.46875 C 198.105469 239.46875 198.292969 239.875 198.292969 240.417969 C 198.292969 241.191406 197.738281 242.734375 197.46875 243.46875 C 197.347656 243.792969 197.28125 243.96875 197.28125 244.214844 C 197.28125 244.824219 197.699219 245.3125 198.347656 245.3125 C 199.605469 245.3125 200.078125 243.320312 200.078125 243.238281 C 200.078125 243.167969 200.023438 243.113281 199.945312 243.113281 C 199.820312 243.113281 199.808594 243.15625 199.742188 243.386719 C 199.429688 244.496094 198.914062 245.039062 198.386719 245.039062 C 198.253906 245.039062 198.035156 245.027344 198.035156 244.59375 C 198.035156 244.253906 198.183594 243.847656 198.265625 243.65625 C 198.535156 242.910156 199.105469 241.394531 199.105469 240.621094 C 199.105469 239.808594 198.632812 239.199219 197.605469 239.199219 C 196.398438 239.199219 195.765625 240.050781 195.519531 240.390625 C 195.480469 239.617188 194.925781 239.199219 194.332031 239.199219 C 193.898438 239.199219 193.601562 239.457031 193.371094 239.917969 C 193.128906 240.402344 192.9375 241.21875 192.9375 241.273438 C 192.9375 241.324219 192.992188 241.394531 193.085938 241.394531 C 193.195312 241.394531 193.207031 241.378906 193.289062 241.066406 C 193.507812 240.242188 193.75 239.46875 194.289062 239.46875 C 194.601562 239.46875 194.710938 239.6875 194.710938 240.09375 C 194.710938 240.390625 194.574219 240.917969 194.480469 241.339844 L 194.101562 242.804688 C 194.046875 243.0625 193.898438 243.671875 193.832031 243.914062 C 193.734375 244.265625 193.585938 244.90625 193.585938 244.972656 C 193.585938 245.160156 193.734375 245.3125 193.9375 245.3125 C 194.101562 245.3125 194.289062 245.230469 194.398438 245.027344 C 194.425781 244.957031 194.546875 244.484375 194.613281 244.214844 L 194.914062 242.992188 Z M 195.359375 241.203125 " fill-opacity="1" fill-rule="nonzero"/></g><path fill="#000000" d="M 165.058594 18.9375 C 164.523438 19.039062 164.324219 19.429688 164.324219 19.742188 C 164.324219 20.136719 164.640625 20.265625 164.875 20.265625 C 165.378906 20.265625 165.730469 19.839844 165.730469 19.398438 C 165.730469 18.710938 164.925781 18.398438 164.222656 18.398438 C 163.203125 18.398438 162.632812 19.382812 162.480469 19.691406 C 162.097656 18.464844 161.058594 18.398438 160.757812 18.398438 C 159.050781 18.398438 158.148438 20.546875 158.148438 20.90625 C 158.148438 20.972656 158.214844 21.054688 158.332031 21.054688 C 158.464844 21.054688 158.5 20.957031 158.53125 20.890625 C 159.101562 19.070312 160.222656 18.726562 160.707031 18.726562 C 161.460938 18.726562 161.613281 19.414062 161.613281 19.808594 C 161.613281 20.167969 161.511719 20.546875 161.308594 21.332031 L 160.742188 23.578125 C 160.492188 24.5625 160.003906 25.464844 159.117188 25.464844 C 159.035156 25.464844 158.617188 25.464844 158.265625 25.253906 C 158.867188 25.136719 159 24.644531 159 24.449219 C 159 24.121094 158.75 23.925781 158.429688 23.925781 C 158.03125 23.925781 157.59375 24.269531 157.59375 24.792969 C 157.59375 25.484375 158.382812 25.792969 159.101562 25.792969 C 159.90625 25.792969 160.472656 25.171875 160.824219 24.5 C 161.09375 25.464844 161.929688 25.792969 162.550781 25.792969 C 164.257812 25.792969 165.160156 23.644531 165.160156 23.285156 C 165.160156 23.203125 165.09375 23.136719 164.992188 23.136719 C 164.84375 23.136719 164.824219 23.21875 164.773438 23.351562 C 164.324219 24.792969 163.351562 25.464844 162.597656 25.464844 C 162.011719 25.464844 161.695312 25.039062 161.695312 24.367188 C 161.695312 24.007812 161.761719 23.742188 162.03125 22.660156 L 162.617188 20.429688 C 162.867188 19.445312 163.4375 18.726562 164.207031 18.726562 C 164.238281 18.726562 164.707031 18.726562 165.058594 18.9375 Z M 165.058594 18.9375 " fill-opacity="1" fill-rule="nonzero"/><g clip-path="url(#68e9916825)"><path fill="#000000" d="M 172.300781 24.40625 C 172.300781 23.570312 172.285156 22.148438 171.699219 21.054688 C 171.183594 20.097656 170.359375 19.757812 169.632812 19.757812 C 168.964844 19.757812 168.113281 20.058594 167.582031 21.042969 C 167.023438 22.066406 166.96875 23.339844 166.96875 24.40625 C 166.96875 25.183594 166.984375 26.375 167.414062 27.414062 C 168.015625 28.820312 169.089844 29.011719 169.632812 29.011719 C 170.277344 29.011719 171.253906 28.753906 171.824219 27.453125 C 172.242188 26.511719 172.300781 25.402344 172.300781 24.40625 Z M 169.632812 28.792969 C 168.742188 28.792969 168.210938 28.042969 168.015625 27.003906 C 167.863281 26.195312 167.863281 25.019531 167.863281 24.253906 C 167.863281 23.203125 167.863281 22.328125 168.042969 21.492188 C 168.308594 20.332031 169.089844 19.976562 169.632812 19.976562 C 170.207031 19.976562 170.945312 20.34375 171.210938 21.464844 C 171.390625 22.246094 171.40625 23.160156 171.40625 24.253906 C 171.40625 25.144531 171.40625 26.238281 171.238281 27.042969 C 170.945312 28.535156 170.121094 28.792969 169.632812 28.792969 Z M 169.632812 28.792969 " fill-opacity="1" fill-rule="nonzero"/></g><path fill="#000000" d="M 188.585938 20.367188 C 188.835938 20.367188 189.089844 20.367188 189.089844 20.085938 C 189.089844 19.792969 188.804688 19.792969 188.519531 19.792969 L 179.164062 19.792969 C 178.878906 19.792969 178.59375 19.792969 178.59375 20.085938 C 178.59375 20.367188 178.84375 20.367188 179.097656 20.367188 Z M 188.519531 23.285156 C 188.804688 23.285156 189.089844 23.285156 189.089844 22.988281 C 189.089844 22.710938 188.835938 22.710938 188.585938 22.710938 L 179.097656 22.710938 C 178.84375 22.710938 178.59375 22.710938 178.59375 22.988281 C 178.59375 23.285156 178.878906 23.285156 179.164062 23.285156 Z M 188.519531 23.285156 " fill-opacity="1" fill-rule="nonzero"/><g clip-path="url(#0e7b2ef1ad)"><path fill="#000000" d="M 198.972656 15.152344 C 198.972656 14.804688 198.957031 14.789062 198.722656 14.789062 C 198.070312 15.558594 197.082031 15.804688 196.144531 15.839844 C 196.09375 15.839844 196.011719 15.839844 195.996094 15.871094 C 195.976562 15.90625 195.976562 15.9375 195.976562 16.28125 C 196.496094 16.28125 197.367188 16.183594 198.035156 15.789062 L 198.035156 24.433594 C 198.035156 25.007812 198.003906 25.203125 196.5625 25.203125 L 196.0625 25.203125 L 196.0625 25.628906 C 196.863281 25.613281 197.703125 25.597656 198.503906 25.597656 C 199.308594 25.597656 200.144531 25.613281 200.949219 25.628906 L 200.949219 25.203125 L 200.445312 25.203125 C 199.007812 25.203125 198.972656 25.023438 198.972656 24.433594 Z M 198.972656 15.152344 " fill-opacity="1" fill-rule="nonzero"/></g><g clip-path="url(#be80d6e0af)"><path fill="#000000" d="M 198.082031 178.902344 C 198.082031 178.117188 197.425781 177.609375 196.738281 177.609375 C 196.085938 177.609375 195.398438 178.117188 195.398438 178.902344 C 195.398438 179.691406 196.054688 180.195312 196.738281 180.195312 C 197.394531 180.195312 198.082031 179.691406 198.082031 178.902344 Z M 198.082031 178.902344 " fill-opacity="1" fill-rule="nonzero"/></g><g clip-path="url(#5d526abf1a)"><path fill="#000000" d="M 198.082031 183.972656 C 198.082031 183.183594 197.425781 182.679688 196.738281 182.679688 C 196.085938 182.679688 195.398438 183.183594 195.398438 183.972656 C 195.398438 184.761719 196.054688 185.265625 196.738281 185.265625 C 197.394531 185.265625 198.082031 184.761719 198.082031 183.972656 Z M 198.082031 183.972656 " fill-opacity="1" fill-rule="nonzero"/></g><g clip-path="url(#3514fe097d)"><path fill="#000000" d="M 198.082031 189.042969 C 198.082031 188.253906 197.425781 187.75 196.738281 187.75 C 196.085938 187.75 195.398438 188.253906 195.398438 189.042969 C 195.398438 189.832031 196.054688 190.335938 196.738281 190.335938 C 197.394531 190.335938 198.082031 189.832031 198.082031 189.042969 Z M 198.082031 189.042969 " fill-opacity="1" fill-rule="nonzero"/></g><g clip-path="url(#1d48142d4c)"><g clip-path="url(#0773d69a5e)"><path stroke-linecap="butt" transform="matrix(0.748574, 0, 0, 0.748574, 496.707675, 92.282978)" fill="none" stroke-linejoin="miter" d="M 47.782695 -0.00230835 L 47.996643 -0.00230835 C 74.385356 -0.00230835 95.780198 21.392534 95.780198 47.781247 C 95.780198 74.169959 74.385356 95.564802 47.996643 95.564802 L 47.782695 95.564802 C 21.393983 95.564802 -0.000859895 74.169959 -0.000859895 47.781247 C -0.000859895 21.392534 21.393983 -0.00230835 47.782695 -0.00230835 Z M 47.782695 -0.00230835 " stroke="#000000" stroke-width="2" stroke-opacity="1" stroke-miterlimit="4"/></g></g><g clip-path="url(#465417965f)"><g clip-path="url(#559d3d0781)"><g clip-path="url(#afafffbafe)"><path stroke-linecap="butt" transform="matrix(0.704622, 0.252728, -0.252728, 0.704622, 204.837609, 11.919038)" fill="none" stroke-linejoin="miter" d="M -0.000265289 14.395711 L 419.38072 14.399616 " stroke="#000000" stroke-width="1" stroke-opacity="1" stroke-miterlimit="4"/></g></g></g><g fill="#000000" fill-opacity="1"><g transform="translate(347.926725, 77.874089)"><g/></g></g><g fill="#000000" fill-opacity="1"><g transform="translate(350.8805, 78.933527)"><g/></g></g><g fill="#000000" fill-opacity="1"><g transform="translate(353.834274, 79.992964)"><g/></g></g><g fill="#000000" fill-opacity="1"><g transform="translate(356.788049, 81.052401)"><g/></g></g><g clip-path="url(#3abf087c96)"><g clip-path="url(#7bf90905fd)"><g clip-path="url(#bc99f4003b)"><path stroke-linecap="butt" transform="matrix(0.732026, 0.15653, -0.15653, 0.732026, 203.448581, 54.324216)" fill="none" stroke-linejoin="miter" d="M 0.000410135 14.397038 L 403.691285 14.399302 " stroke="#000000" stroke-width="1" stroke-opacity="1" stroke-miterlimit="4"/></g></g></g><g fill="#000000" fill-opacity="1"><g transform="translate(348.311773, 99.38565)"><g/></g></g><g fill="#000000" fill-opacity="1"><g transform="translate(351.380425, 100.041824)"><g/></g></g><g fill="#000000" fill-opacity="1"><g transform="translate(354.449078, 100.697998)"><g/></g></g><g fill="#000000" fill-opacity="1"><g transform="translate(357.51773, 101.354172)"><g/></g></g><g clip-path="url(#20c1927b44)"><path stroke-linecap="butt" transform="matrix(0.748574, -0.00000000000215048, 0.00000000000215048, 0.748574, 201.20084, 117.275426)" fill="none" stroke-linejoin="miter" d="M -0.00216527 14.399726 L 394.758775 14.399726 " stroke="#000000" stroke-width="1" stroke-opacity="1" stroke-miterlimit="4"/></g><g fill="#000000" fill-opacity="1"><g transform="translate(348.938969, 131.049182)"><g/></g></g><g fill="#000000" fill-opacity="1"><g transform="translate(352.076992, 131.049182)"><g/></g></g><g fill="#000000" fill-opacity="1"><g transform="translate(355.215016, 131.049182)"><g/></g></g><g fill="#000000" fill-opacity="1"><g transform="translate(358.35304, 131.049182)"><g/></g></g><g clip-path="url(#e1f845527e)"><g clip-path="url(#55357af11d)"><g clip-path="url(#c04916bc49)"><path stroke-linecap="butt" transform="matrix(0.700024, -0.265198, 0.265198, 0.700024, 197.384209, 229.922295)" fill="none" stroke-linejoin="miter" d="M 0.00133483 14.396738 L 422.135527 14.396449 " stroke="#000000" stroke-width="1" stroke-opacity="1" stroke-miterlimit="4"/></g></g></g><g fill="#000000" fill-opacity="1"><g transform="translate(352.936182, 185.721867)"><g/></g></g><g fill="#000000" fill-opacity="1"><g transform="translate(355.870682, 184.610158)"><g/></g></g><g fill="#000000" fill-opacity="1"><g transform="translate(358.805183, 183.498449)"><g/></g></g><path fill="#000000" d="M 345.285156 75.65625 C 345.648438 76.640625 346.667969 76.820312 347.292969 76.820312 C 348.542969 76.820312 349.285156 75.738281 349.742188 74.605469 C 350.121094 73.652344 350.730469 71.488281 350.730469 70.519531 C 350.730469 69.515625 350.222656 69.417969 350.074219 69.417969 C 349.679688 69.417969 349.316406 69.8125 349.316406 70.140625 C 349.316406 70.339844 349.429688 70.453125 349.511719 70.519531 C 349.660156 70.667969 350.089844 71.109375 350.089844 71.960938 C 350.089844 72.519531 349.628906 74.0625 349.285156 74.835938 C 348.824219 75.835938 348.214844 76.492188 347.359375 76.492188 C 346.4375 76.492188 346.140625 75.804688 346.140625 75.046875 C 346.140625 74.574219 346.289062 74 346.355469 73.71875 L 347.046875 70.960938 C 347.128906 70.632812 347.277344 70.058594 347.277344 69.992188 C 347.277344 69.746094 347.078125 69.582031 346.832031 69.582031 C 346.355469 69.582031 346.242188 69.992188 346.140625 70.386719 C 345.976562 71.027344 345.285156 73.800781 345.21875 74.164062 C 345.15625 74.441406 345.15625 74.621094 345.15625 74.984375 C 345.15625 75.375 344.628906 76 344.613281 76.035156 C 344.429688 76.214844 344.167969 76.492188 343.65625 76.492188 C 342.359375 76.492188 342.359375 75.261719 342.359375 74.984375 C 342.359375 74.457031 342.472656 73.734375 343.214844 71.78125 C 343.410156 71.273438 343.492188 71.058594 343.492188 70.730469 C 343.492188 70.042969 343 69.417969 342.195312 69.417969 C 340.679688 69.417969 340.070312 71.796875 340.070312 71.929688 C 340.070312 71.996094 340.136719 72.078125 340.253906 72.078125 C 340.402344 72.078125 340.417969 72.011719 340.484375 71.78125 C 340.894531 70.339844 341.535156 69.746094 342.144531 69.746094 C 342.308594 69.746094 342.570312 69.761719 342.570312 70.289062 C 342.570312 70.371094 342.570312 70.714844 342.292969 71.4375 C 341.519531 73.488281 341.355469 74.164062 341.355469 74.785156 C 341.355469 76.507812 342.769531 76.820312 343.609375 76.820312 C 343.886719 76.820312 344.628906 76.820312 345.285156 75.65625 Z M 345.285156 75.65625 " fill-opacity="1" fill-rule="nonzero"/><path fill="#000000" d="M 356.902344 75.429688 C 356.902344 74.597656 356.886719 73.175781 356.3125 72.078125 C 355.804688 71.121094 354.996094 70.78125 354.28125 70.78125 C 353.625 70.78125 352.785156 71.082031 352.265625 72.066406 C 351.71875 73.09375 351.664062 74.363281 351.664062 75.429688 C 351.664062 76.210938 351.675781 77.402344 352.101562 78.441406 C 352.691406 79.851562 353.746094 80.042969 354.28125 80.042969 C 354.914062 80.042969 355.871094 79.78125 356.433594 78.484375 C 356.84375 77.539062 356.902344 76.429688 356.902344 75.429688 Z M 354.28125 79.824219 C 353.402344 79.824219 352.882812 79.070312 352.691406 78.03125 C 352.539062 77.222656 352.539062 76.046875 352.539062 75.28125 C 352.539062 74.226562 352.539062 73.351562 352.71875 72.515625 C 352.980469 71.355469 353.746094 71 354.28125 71 C 354.84375 71 355.570312 71.367188 355.832031 72.488281 C 356.007812 73.269531 356.023438 74.1875 356.023438 75.28125 C 356.023438 76.171875 356.023438 77.265625 355.859375 78.070312 C 355.570312 79.5625 354.761719 79.824219 354.28125 79.824219 Z M 354.28125 79.824219 " fill-opacity="1" fill-rule="nonzero"/><g clip-path="url(#450217b328)"><path fill="#000000" d="M 345.0625 132.417969 C 345.421875 133.402344 346.441406 133.582031 347.066406 133.582031 C 348.316406 133.582031 349.058594 132.5 349.519531 131.367188 C 349.898438 130.414062 350.503906 128.25 350.503906 127.28125 C 350.503906 126.28125 349.996094 126.179688 349.847656 126.179688 C 349.453125 126.179688 349.089844 126.574219 349.089844 126.902344 C 349.089844 127.101562 349.207031 127.214844 349.289062 127.28125 C 349.4375 127.429688 349.863281 127.871094 349.863281 128.726562 C 349.863281 129.285156 349.402344 130.824219 349.058594 131.597656 C 348.597656 132.597656 347.988281 133.253906 347.132812 133.253906 C 346.210938 133.253906 345.917969 132.566406 345.917969 131.8125 C 345.917969 131.335938 346.0625 130.761719 346.128906 130.480469 L 346.820312 127.722656 C 346.902344 127.394531 347.050781 126.820312 347.050781 126.753906 C 347.050781 126.507812 346.855469 126.34375 346.605469 126.34375 C 346.128906 126.34375 346.015625 126.753906 345.917969 127.148438 C 345.75 127.789062 345.0625 130.5625 344.996094 130.925781 C 344.929688 131.203125 344.929688 131.382812 344.929688 131.746094 C 344.929688 132.140625 344.402344 132.761719 344.386719 132.796875 C 344.207031 132.976562 343.941406 133.253906 343.433594 133.253906 C 342.132812 133.253906 342.132812 132.023438 342.132812 131.746094 C 342.132812 131.21875 342.25 130.496094 342.988281 128.542969 C 343.1875 128.035156 343.269531 127.824219 343.269531 127.496094 C 343.269531 126.804688 342.773438 126.179688 341.96875 126.179688 C 340.457031 126.179688 339.847656 128.5625 339.847656 128.691406 C 339.847656 128.757812 339.914062 128.839844 340.027344 128.839844 C 340.175781 128.839844 340.191406 128.773438 340.257812 128.542969 C 340.667969 127.101562 341.3125 126.507812 341.917969 126.507812 C 342.082031 126.507812 342.347656 126.527344 342.347656 127.050781 C 342.347656 127.132812 342.347656 127.476562 342.066406 128.199219 C 341.292969 130.25 341.128906 130.925781 341.128906 131.546875 C 341.128906 133.273438 342.542969 133.582031 343.382812 133.582031 C 343.664062 133.582031 344.402344 133.582031 345.0625 132.417969 Z M 345.0625 132.417969 " fill-opacity="1" fill-rule="nonzero"/></g><path fill="#000000" d="M 356.632812 134.464844 L 356.386719 134.464844 C 356.25 135.4375 356.140625 135.601562 356.085938 135.683594 C 356.015625 135.792969 355.03125 135.792969 354.835938 135.792969 L 352.203125 135.792969 C 352.699219 135.257812 353.660156 134.289062 354.824219 133.164062 C 355.660156 132.371094 356.632812 131.441406 356.632812 130.085938 C 356.632812 128.472656 355.34375 127.542969 353.90625 127.542969 C 352.398438 127.542969 351.476562 128.871094 351.476562 130.101562 C 351.476562 130.632812 351.875 130.703125 352.039062 130.703125 C 352.175781 130.703125 352.589844 130.621094 352.589844 130.140625 C 352.589844 129.71875 352.234375 129.59375 352.039062 129.59375 C 351.957031 129.59375 351.875 129.609375 351.820312 129.636719 C 352.082031 128.472656 352.875 127.898438 353.714844 127.898438 C 354.90625 127.898438 355.6875 128.839844 355.6875 130.085938 C 355.6875 131.277344 354.988281 132.304688 354.207031 133.191406 L 351.476562 136.269531 L 351.476562 136.585938 L 356.304688 136.585938 Z M 356.632812 134.464844 " fill-opacity="1" fill-rule="nonzero"/><g clip-path="url(#4b0ca473f9)"><path fill="#000000" d="M 345.0625 98.898438 C 345.421875 99.882812 346.441406 100.0625 347.066406 100.0625 C 348.316406 100.0625 349.058594 98.980469 349.519531 97.847656 C 349.898438 96.894531 350.503906 94.726562 350.503906 93.757812 C 350.503906 92.757812 349.996094 92.660156 349.847656 92.660156 C 349.453125 92.660156 349.089844 93.054688 349.089844 93.382812 C 349.089844 93.578125 349.207031 93.695312 349.289062 93.757812 C 349.4375 93.90625 349.863281 94.351562 349.863281 95.203125 C 349.863281 95.761719 349.402344 97.304688 349.058594 98.074219 C 348.597656 99.078125 347.988281 99.734375 347.132812 99.734375 C 346.210938 99.734375 345.917969 99.042969 345.917969 98.289062 C 345.917969 97.8125 346.0625 97.238281 346.128906 96.960938 L 346.820312 94.203125 C 346.902344 93.875 347.050781 93.300781 347.050781 93.234375 C 347.050781 92.988281 346.855469 92.824219 346.605469 92.824219 C 346.128906 92.824219 346.015625 93.234375 345.917969 93.628906 C 345.75 94.269531 345.0625 97.042969 344.996094 97.402344 C 344.929688 97.683594 344.929688 97.863281 344.929688 98.222656 C 344.929688 98.617188 344.402344 99.242188 344.386719 99.273438 C 344.207031 99.453125 343.941406 99.734375 343.433594 99.734375 C 342.132812 99.734375 342.132812 98.503906 342.132812 98.222656 C 342.132812 97.699219 342.25 96.976562 342.988281 95.023438 C 343.1875 94.515625 343.269531 94.300781 343.269531 93.972656 C 343.269531 93.285156 342.773438 92.660156 341.96875 92.660156 C 340.457031 92.660156 339.847656 95.039062 339.847656 95.171875 C 339.847656 95.238281 339.914062 95.320312 340.027344 95.320312 C 340.175781 95.320312 340.191406 95.253906 340.257812 95.023438 C 340.667969 93.578125 341.3125 92.988281 341.917969 92.988281 C 342.082031 92.988281 342.347656 93.003906 342.347656 93.53125 C 342.347656 93.613281 342.347656 93.957031 342.066406 94.679688 C 341.292969 96.730469 341.128906 97.402344 341.128906 98.027344 C 341.128906 99.75 342.542969 100.0625 343.382812 100.0625 C 343.664062 100.0625 344.402344 100.0625 345.0625 98.898438 Z M 345.0625 98.898438 " fill-opacity="1" fill-rule="nonzero"/></g><path fill="#000000" d="M 354.5625 94.320312 C 354.5625 94.035156 354.550781 94.019531 354.359375 94.019531 C 353.824219 94.664062 353.015625 94.867188 352.246094 94.894531 C 352.203125 94.894531 352.136719 94.894531 352.121094 94.921875 C 352.109375 94.949219 352.109375 94.976562 352.109375 95.265625 C 352.535156 95.265625 353.246094 95.183594 353.796875 94.855469 L 353.796875 102.066406 C 353.796875 102.542969 353.769531 102.707031 352.589844 102.707031 L 352.175781 102.707031 L 352.175781 103.0625 C 352.835938 103.050781 353.519531 103.035156 354.179688 103.035156 C 354.835938 103.035156 355.523438 103.050781 356.179688 103.0625 L 356.179688 102.707031 L 355.769531 102.707031 C 354.589844 102.707031 354.5625 102.558594 354.5625 102.066406 Z M 354.5625 94.320312 " fill-opacity="1" fill-rule="nonzero"/><g clip-path="url(#da4eed673c)"><path fill="#000000" d="M 344.703125 186.992188 C 345.066406 187.976562 346.085938 188.15625 346.710938 188.15625 C 347.960938 188.15625 348.703125 187.074219 349.164062 185.941406 C 349.539062 184.988281 350.148438 182.820312 350.148438 181.855469 C 350.148438 180.851562 349.640625 180.753906 349.492188 180.753906 C 349.097656 180.753906 348.734375 181.148438 348.734375 181.476562 C 348.734375 181.671875 348.851562 181.789062 348.933594 181.855469 C 349.082031 182 349.507812 182.445312 349.507812 183.296875 C 349.507812 183.855469 349.046875 185.398438 348.703125 186.171875 C 348.242188 187.171875 347.632812 187.828125 346.777344 187.828125 C 345.855469 187.828125 345.558594 187.140625 345.558594 186.382812 C 345.558594 185.90625 345.707031 185.332031 345.773438 185.054688 L 346.464844 182.296875 C 346.546875 181.96875 346.695312 181.394531 346.695312 181.328125 C 346.695312 181.082031 346.496094 180.917969 346.25 180.917969 C 345.773438 180.917969 345.660156 181.328125 345.558594 181.722656 C 345.394531 182.363281 344.703125 185.136719 344.640625 185.496094 C 344.574219 185.777344 344.574219 185.957031 344.574219 186.316406 C 344.574219 186.710938 344.046875 187.335938 344.03125 187.367188 C 343.847656 187.550781 343.585938 187.828125 343.078125 187.828125 C 341.777344 187.828125 341.777344 186.597656 341.777344 186.316406 C 341.777344 185.792969 341.890625 185.070312 342.632812 183.117188 C 342.828125 182.609375 342.910156 182.394531 342.910156 182.066406 C 342.910156 181.378906 342.417969 180.753906 341.613281 180.753906 C 340.097656 180.753906 339.492188 183.132812 339.492188 183.265625 C 339.492188 183.332031 339.554688 183.414062 339.671875 183.414062 C 339.820312 183.414062 339.835938 183.347656 339.902344 183.117188 C 340.3125 181.671875 340.953125 181.082031 341.5625 181.082031 C 341.726562 181.082031 341.992188 181.097656 341.992188 181.625 C 341.992188 181.707031 341.992188 182.050781 341.710938 182.773438 C 340.9375 184.824219 340.773438 185.496094 340.773438 186.121094 C 340.773438 187.84375 342.1875 188.15625 343.027344 188.15625 C 343.308594 188.15625 344.046875 188.15625 344.703125 186.992188 Z M 344.703125 186.992188 " fill-opacity="1" fill-rule="nonzero"/></g><g clip-path="url(#196329774d)"><path fill="#000000" d="M 353.382812 186.445312 C 353.410156 186.363281 353.753906 185.679688 354.261719 185.242188 C 354.617188 184.914062 355.085938 184.695312 355.621094 184.695312 C 356.167969 184.695312 356.359375 185.105469 356.359375 185.652344 C 356.359375 186.429688 355.796875 187.992188 355.523438 188.730469 C 355.398438 189.058594 355.332031 189.238281 355.332031 189.484375 C 355.332031 190.097656 355.757812 190.589844 356.414062 190.589844 C 357.691406 190.589844 358.171875 188.578125 358.171875 188.496094 C 358.171875 188.429688 358.117188 188.375 358.03125 188.375 C 357.910156 188.375 357.894531 188.414062 357.828125 188.648438 C 357.511719 189.769531 356.992188 190.316406 356.457031 190.316406 C 356.320312 190.316406 356.101562 190.304688 356.101562 189.867188 C 356.101562 189.523438 356.25 189.113281 356.332031 188.921875 C 356.605469 188.167969 357.183594 186.636719 357.183594 185.855469 C 357.183594 185.035156 356.703125 184.421875 355.660156 184.421875 C 354.441406 184.421875 353.796875 185.28125 353.550781 185.625 C 353.507812 184.84375 352.945312 184.421875 352.34375 184.421875 C 351.902344 184.421875 351.601562 184.679688 351.367188 185.144531 C 351.121094 185.636719 350.929688 186.457031 350.929688 186.515625 C 350.929688 186.570312 350.984375 186.636719 351.082031 186.636719 C 351.191406 186.636719 351.203125 186.625 351.285156 186.308594 C 351.507812 185.472656 351.753906 184.695312 352.300781 184.695312 C 352.617188 184.695312 352.726562 184.914062 352.726562 185.324219 C 352.726562 185.625 352.589844 186.15625 352.492188 186.582031 L 352.109375 188.058594 C 352.054688 188.320312 351.902344 188.933594 351.835938 189.183594 C 351.738281 189.539062 351.589844 190.179688 351.589844 190.25 C 351.589844 190.441406 351.738281 190.589844 351.945312 190.589844 C 352.109375 190.589844 352.300781 190.507812 352.410156 190.304688 C 352.4375 190.234375 352.5625 189.757812 352.628906 189.484375 L 352.933594 188.25 Z M 353.382812 186.445312 " fill-opacity="1" fill-rule="nonzero"/></g><g clip-path="url(#1183302b8f)"><path fill="#000000" d="M 348.96875 150.839844 C 348.96875 150.050781 348.316406 149.546875 347.628906 149.546875 C 346.976562 149.546875 346.289062 150.050781 346.289062 150.839844 C 346.289062 151.628906 346.945312 152.132812 347.628906 152.132812 C 348.285156 152.132812 348.96875 151.628906 348.96875 150.839844 Z M 348.96875 150.839844 " fill-opacity="1" fill-rule="nonzero"/></g><path fill="#000000" d="M 348.96875 155.910156 C 348.96875 155.121094 348.316406 154.617188 347.628906 154.617188 C 346.976562 154.617188 346.289062 155.121094 346.289062 155.910156 C 346.289062 156.699219 346.945312 157.203125 347.628906 157.203125 C 348.285156 157.203125 348.96875 156.699219 348.96875 155.910156 Z M 348.96875 155.910156 " fill-opacity="1" fill-rule="nonzero"/><g clip-path="url(#8bc498f4cf)"><path fill="#000000" d="M 348.96875 160.980469 C 348.96875 160.191406 348.316406 159.6875 347.628906 159.6875 C 346.976562 159.6875 346.289062 160.191406 346.289062 160.980469 C 346.289062 161.769531 346.945312 162.273438 347.628906 162.273438 C 348.285156 162.273438 348.96875 161.769531 348.96875 160.980469 Z M 348.96875 160.980469 " fill-opacity="1" fill-rule="nonzero"/></g><path stroke-linecap="butt" transform="matrix(0, 0.748574, -0.748574, 0, 532.930181, 92.285793)" fill="none" stroke-linejoin="miter" d="M -0.000850094 0.501612 L 95.571478 0.501612 " stroke="#000000" stroke-width="1" stroke-opacity="1" stroke-miterlimit="4"/><g clip-path="url(#8227740d58)"><path fill="#000000" d="M 514.042969 132.0625 C 515.03125 130.929688 515.835938 130.210938 516.984375 129.171875 C 518.367188 127.96875 518.964844 127.390625 519.285156 127.042969 C 520.894531 125.449219 521.699219 124.105469 521.699219 123.921875 C 521.699219 123.738281 521.515625 123.738281 521.46875 123.738281 C 521.308594 123.738281 521.261719 123.828125 521.148438 123.992188 C 520.574219 124.984375 520.019531 125.472656 519.421875 125.472656 C 518.941406 125.472656 518.6875 125.261719 518.25 124.707031 C 517.769531 124.128906 517.375 123.738281 516.710938 123.738281 C 515.03125 123.738281 514.019531 125.839844 514.019531 126.328125 C 514.019531 126.394531 514.042969 126.535156 514.25 126.535156 C 514.433594 126.535156 514.457031 126.441406 514.527344 126.28125 C 514.917969 125.355469 516.019531 125.195312 516.457031 125.195312 C 516.941406 125.195312 517.398438 125.355469 517.882812 125.5625 C 518.757812 125.933594 519.125 125.933594 519.355469 125.933594 C 519.515625 125.933594 519.605469 125.933594 519.722656 125.910156 C 518.964844 126.8125 517.722656 127.921875 516.6875 128.871094 L 514.363281 131.023438 C 512.960938 132.457031 512.109375 133.820312 512.109375 133.980469 C 512.109375 134.121094 512.226562 134.167969 512.363281 134.167969 C 512.503906 134.167969 512.523438 134.144531 512.6875 133.867188 C 513.054688 133.289062 513.789062 132.433594 514.640625 132.433594 C 515.125 132.433594 515.351562 132.59375 515.8125 133.171875 C 516.25 133.679688 516.640625 134.167969 517.375 134.167969 C 519.628906 134.167969 520.917969 131.230469 520.917969 130.699219 C 520.917969 130.605469 520.894531 130.46875 520.664062 130.46875 C 520.480469 130.46875 520.457031 130.558594 520.390625 130.789062 C 519.882812 132.15625 518.527344 132.710938 517.628906 132.710938 C 517.148438 132.710938 516.6875 132.546875 516.203125 132.339844 C 515.285156 131.96875 515.03125 131.96875 514.734375 131.96875 C 514.503906 131.96875 514.25 131.96875 514.042969 132.0625 Z M 514.042969 132.0625 " fill-opacity="1" fill-rule="nonzero"/></g><path fill="#000000" d="M 548.429688 131.636719 C 548.039062 131.636719 547.691406 131.636719 547.691406 131.519531 C 547.691406 131.472656 548.082031 129.300781 548.222656 128.789062 C 548.957031 125.828125 550.703125 123.703125 552.707031 123.703125 C 554.199219 123.703125 554.890625 124.835938 554.890625 126.109375 C 554.890625 128.742188 551.945312 131.636719 548.429688 131.636719 Z M 547.441406 132.835938 C 547.578125 132.859375 547.808594 132.882812 548.222656 132.882812 C 551.992188 132.882812 555.464844 129.230469 555.464844 125.574219 C 555.464844 124.164062 554.84375 122.453125 552.914062 122.453125 C 549.601562 122.453125 548.199219 127.148438 546.910156 131.496094 C 544.265625 130.988281 543.164062 129.578125 543.164062 128.027344 C 543.164062 127.402344 543.644531 124.929688 544.980469 123.261719 C 545.230469 122.960938 545.230469 122.914062 545.230469 122.871094 C 545.230469 122.683594 545.046875 122.683594 545.003906 122.683594 C 544.382812 122.683594 542.632812 126.0625 542.632812 128.257812 C 542.632812 130.847656 544.65625 132.257812 546.519531 132.675781 L 545.324219 136.585938 C 545.210938 136.929688 545.210938 136.976562 545.210938 137.070312 C 545.210938 137.625 545.761719 137.648438 545.808594 137.648438 C 546.035156 137.648438 546.449219 137.554688 546.636719 137.09375 C 546.703125 136.886719 547.347656 133.300781 547.441406 132.835938 Z M 547.441406 132.835938 " fill-opacity="1" fill-rule="nonzero"/><g clip-path="url(#9354072eeb)"><path fill="#000000" d="M 705.96875 128.359375 C 705.875 128.664062 705.875 128.703125 705.617188 129.042969 C 705.210938 129.546875 704.398438 130.316406 703.527344 130.316406 C 702.769531 130.316406 702.347656 129.652344 702.347656 128.59375 C 702.347656 127.605469 702.917969 125.59375 703.269531 124.839844 C 703.898438 123.585938 704.765625 122.9375 705.488281 122.9375 C 706.707031 122.9375 706.945312 124.410156 706.945312 124.554688 C 706.945312 124.574219 706.890625 124.804688 706.875 124.839844 Z M 707.152344 123.765625 C 706.945312 123.296875 706.449219 122.578125 705.488281 122.578125 C 703.398438 122.578125 701.144531 125.199219 701.144531 127.859375 C 701.144531 129.636719 702.214844 130.675781 703.472656 130.675781 C 704.488281 130.675781 705.359375 129.90625 705.875 129.3125 C 706.058594 130.371094 706.929688 130.675781 707.484375 130.675781 C 708.039062 130.675781 708.480469 130.355469 708.8125 129.707031 C 709.109375 129.097656 709.367188 128 709.367188 127.929688 C 709.367188 127.839844 709.292969 127.769531 709.183594 127.769531 C 709.015625 127.769531 709 127.859375 708.925781 128.128906 C 708.648438 129.1875 708.296875 130.316406 707.539062 130.316406 C 707.003906 130.316406 706.964844 129.851562 706.964844 129.492188 C 706.964844 129.078125 707.019531 128.882812 707.1875 128.179688 C 707.316406 127.730469 707.410156 127.335938 707.558594 126.816406 C 708.242188 124.125 708.40625 123.476562 708.40625 123.371094 C 708.40625 123.117188 708.203125 122.921875 707.925781 122.921875 C 707.335938 122.921875 707.1875 123.550781 707.152344 123.765625 Z M 707.152344 123.765625 " fill-opacity="1" fill-rule="nonzero"/></g><path fill="#000000" d="M 727.507812 124.679688 C 727.769531 124.679688 728.101562 124.679688 728.101562 124.355469 C 728.101562 124.015625 727.785156 124.015625 727.507812 124.015625 L 716.625 124.015625 C 716.367188 124.015625 716.035156 124.015625 716.035156 124.339844 C 716.035156 124.679688 716.347656 124.679688 716.625 124.679688 Z M 727.507812 128.019531 C 727.769531 128.019531 728.101562 128.019531 728.101562 127.695312 C 728.101562 127.355469 727.785156 127.355469 727.507812 127.355469 L 716.625 127.355469 C 716.367188 127.355469 716.035156 127.355469 716.035156 127.679688 C 716.035156 128.019531 716.347656 128.019531 716.625 128.019531 Z M 727.507812 128.019531 " fill-opacity="1" fill-rule="nonzero"/><g clip-path="url(#8cd700309f)"><path fill="#000000" d="M 739.101562 132.507812 C 738.601562 133.191406 737.882812 133.800781 736.976562 133.800781 C 736.753906 133.800781 735.867188 133.765625 735.589844 132.9375 C 735.648438 132.957031 735.738281 132.957031 735.777344 132.957031 C 736.332031 132.957031 736.699219 132.488281 736.699219 132.078125 C 736.699219 131.664062 736.347656 131.519531 736.070312 131.519531 C 735.777344 131.519531 735.128906 131.734375 735.128906 132.617188 C 735.128906 133.53125 735.925781 134.160156 736.976562 134.160156 C 738.824219 134.160156 740.691406 132.507812 741.207031 130.515625 L 743.019531 123.511719 C 743.039062 123.421875 743.074219 123.316406 743.074219 123.207031 C 743.074219 122.9375 742.851562 122.757812 742.578125 122.757812 C 742.410156 122.757812 742.023438 122.832031 741.875 123.371094 L 740.507812 128.648438 C 740.414062 128.972656 740.414062 129.007812 740.265625 129.203125 C 739.898438 129.707031 739.289062 130.316406 738.398438 130.316406 C 737.367188 130.316406 737.273438 129.332031 737.273438 128.84375 C 737.273438 127.820312 737.773438 126.441406 738.269531 125.148438 C 738.472656 124.625 738.585938 124.375 738.585938 124.015625 C 738.585938 123.261719 738.03125 122.578125 737.125 122.578125 C 735.425781 122.578125 734.742188 125.183594 734.742188 125.328125 C 734.742188 125.398438 734.816406 125.488281 734.945312 125.488281 C 735.109375 125.488281 735.128906 125.417969 735.203125 125.164062 C 735.648438 123.65625 736.347656 122.9375 737.070312 122.9375 C 737.234375 122.9375 737.550781 122.9375 737.550781 123.53125 C 737.550781 123.996094 737.347656 124.519531 737.070312 125.199219 C 736.164062 127.550781 736.164062 128.144531 736.164062 128.574219 C 736.164062 130.28125 737.421875 130.675781 738.34375 130.675781 C 738.878906 130.675781 739.546875 130.515625 740.191406 129.851562 L 740.210938 129.867188 C 739.933594 130.929688 739.75 131.628906 739.101562 132.507812 Z M 739.101562 132.507812 " fill-opacity="1" fill-rule="nonzero"/></g><path stroke-linecap="butt" transform="matrix(0.748574, 0.00000000000775865, -0.00000000000775865, 0.748574, 568.410437, 127.679312)" fill="none" stroke-linejoin="miter" d="M -0.00037529 0.501454 L 164.828624 0.501454 " stroke="#000000" stroke-width="1" stroke-opacity="1" stroke-miterlimit="4"/><path stroke-linecap="round" transform="matrix(0.748574, 0.00000000000775865, -0.00000000000775865, 0.748574, 568.410437, 127.679312)" fill="none" stroke-linejoin="round" d="M 162.830033 -1.001404 L 164.828624 0.501454 L 162.830033 1.999093 " stroke="#000000" stroke-width="1" stroke-opacity="1" stroke-miterlimit="4"/></svg>