<svg xmlns="http://www.w3.org/2000/svg" xmlns:xlink="http://www.w3.org/1999/xlink" width="1200" zoomAndPan="magnify" viewBox="0 0 900 262.499992" height="350" preserveAspectRatio="xMidYMid meet" version="1.0"><defs><g/><clipPath id="a89863198d"><path d="M 0.855469 0 L 899.144531 0 L 899.144531 262 L 0.855469 262 Z M 0.855469 0 " clip-rule="nonzero"/></clipPath><clipPath id="53f94e6498"><path d="M 135.335938 59.183594 L 144 59.183594 L 144 67 L 135.335938 67 Z M 135.335938 59.183594 " clip-rule="nonzero"/></clipPath><clipPath id="c20a7cfbfb"><path d="M 135.34375 122.375 L 144 122.375 L 144 130 L 135.34375 130 Z M 135.34375 122.375 " clip-rule="nonzero"/></clipPath><clipPath id="a4bd16ab09"><path d="M 144 123 L 150.3125 123 L 150.3125 133 L 144 133 Z M 144 123 " clip-rule="nonzero"/></clipPath><clipPath id="8cc98e0e14"><path d="M 142 239 L 150 239 L 150 245.453125 L 142 245.453125 Z M 142 239 " clip-rule="nonzero"/></clipPath><clipPath id="12a2816d4b"><path d="M 106.21875 18 L 115 18 L 115 26 L 106.21875 26 Z M 106.21875 18 " clip-rule="nonzero"/></clipPath><clipPath id="ef3061b2af"><path d="M 116 19 L 122 19 L 122 29.003906 L 116 29.003906 Z M 116 19 " clip-rule="nonzero"/></clipPath><clipPath id="78ff3deb23"><path d="M 145 14.78125 L 150.382812 14.78125 L 150.382812 26 L 145 26 Z M 145 14.78125 " clip-rule="nonzero"/></clipPath><clipPath id="7d02cf3472"><path d="M 144 177.605469 L 147.625 177.605469 L 147.625 181 L 144 181 Z M 144 177.605469 " clip-rule="nonzero"/></clipPath><clipPath id="814cb3ce58"><path d="M 144 182 L 147.625 182 L 147.625 186 L 144 186 Z M 144 182 " clip-rule="nonzero"/></clipPath><clipPath id="4c87296861"><path d="M 144 187 L 147.625 187 L 147.625 190.328125 L 144 190.328125 Z M 144 187 " clip-rule="nonzero"/></clipPath><clipPath id="af3c3d3fcd"><path d="M 445.738281 82.167969 L 639.613281 82.167969 L 639.613281 174.988281 L 445.738281 174.988281 Z M 445.738281 82.167969 " clip-rule="nonzero"/></clipPath><clipPath id="4edd06e16d"><path d="M 457.710938 82.167969 L 627.667969 82.167969 C 630.84375 82.167969 633.890625 83.429688 636.136719 85.675781 C 638.382812 87.921875 639.644531 90.964844 639.644531 94.140625 L 639.644531 163.363281 C 639.644531 166.539062 638.382812 169.585938 636.136719 171.832031 C 633.890625 174.078125 630.84375 175.339844 627.667969 175.339844 L 457.710938 175.339844 C 454.535156 175.339844 451.488281 174.078125 449.246094 171.832031 C 447 169.585938 445.738281 166.539062 445.738281 163.363281 L 445.738281 94.140625 C 445.738281 90.964844 447 87.921875 449.246094 85.675781 C 451.488281 83.429688 454.535156 82.167969 457.710938 82.167969 Z M 457.710938 82.167969 " clip-rule="nonzero"/></clipPath><clipPath id="be6f152287"><path d="M 483.339844 66 L 489 66 L 489 77.582031 L 483.339844 77.582031 Z M 483.339844 66 " clip-rule="nonzero"/></clipPath><clipPath id="846f39a98a"><path d="M 490 69 L 496 69 L 496 77.582031 L 490 77.582031 Z M 490 69 " clip-rule="nonzero"/></clipPath><clipPath id="144ccd9455"><path d="M 496 69 L 505 69 L 505 77.582031 L 496 77.582031 Z M 496 69 " clip-rule="nonzero"/></clipPath><clipPath id="47670292b4"><path d="M 504 69 L 513 69 L 513 77.582031 L 504 77.582031 Z M 504 69 " clip-rule="nonzero"/></clipPath><clipPath id="0126d831e1"><path d="M 513 69 L 520 69 L 520 77.582031 L 513 77.582031 Z M 513 69 " clip-rule="nonzero"/></clipPath><clipPath id="374e96ab4e"><path d="M 520 64.855469 L 526 64.855469 L 526 77.582031 L 520 77.582031 Z M 520 64.855469 " clip-rule="nonzero"/></clipPath><clipPath id="4e9af7d3e9"><path d="M 525 69 L 532 69 L 532 77.582031 L 525 77.582031 Z M 525 69 " clip-rule="nonzero"/></clipPath><clipPath id="cc2b1d625f"><path d="M 532 69 L 539 69 L 539 77.582031 L 532 77.582031 Z M 532 69 " clip-rule="nonzero"/></clipPath><clipPath id="6ec04e72e7"><path d="M 544 64.855469 L 550 64.855469 L 550 77.582031 L 544 77.582031 Z M 544 64.855469 " clip-rule="nonzero"/></clipPath><clipPath id="2c85a9f4e4"><path d="M 549 69 L 558 69 L 558 77.582031 L 549 77.582031 Z M 549 69 " clip-rule="nonzero"/></clipPath><clipPath id="2712815811"><path d="M 558 69 L 567 69 L 567 77.582031 L 558 77.582031 Z M 558 69 " clip-rule="nonzero"/></clipPath><clipPath id="8c7adad263"><path d="M 567 69 L 575 69 L 575 77.582031 L 567 77.582031 Z M 567 69 " clip-rule="nonzero"/></clipPath><clipPath id="1e6808794c"><path d="M 574 66 L 581 66 L 581 77.582031 L 574 77.582031 Z M 574 66 " clip-rule="nonzero"/></clipPath><clipPath id="c2a7a2fd8a"><path d="M 581 65 L 585 65 L 585 77.582031 L 581 77.582031 Z M 581 65 " clip-rule="nonzero"/></clipPath><clipPath id="480c0b0777"><path d="M 585 69 L 594 69 L 594 77.582031 L 585 77.582031 Z M 585 69 " clip-rule="nonzero"/></clipPath><clipPath id="e5c4a5858a"><path d="M 594 69 L 602.363281 69 L 602.363281 77.582031 L 594 77.582031 Z M 594 69 " clip-rule="nonzero"/></clipPath><clipPath id="d899f22ca2"><path d="M 150 21 L 446 21 L 446 130 L 150 130 Z M 150 21 " clip-rule="nonzero"/></clipPath><clipPath id="47cad02cf9"><path d="M 149.917969 19.15625 L 448.421875 127.023438 L 446.894531 131.25 L 148.390625 23.378906 Z M 149.917969 19.15625 " clip-rule="nonzero"/></clipPath><clipPath id="0979e5647e"><path d="M 150.589844 21.703125 L 150.335938 22.40625 L 288.195312 72.226562 L 288.449219 71.523438 Z M 308 78.585938 L 307.746094 79.289062 L 445.605469 129.109375 L 445.859375 128.40625 Z M 308 78.585938 " clip-rule="nonzero"/></clipPath><clipPath id="5fb06c089a"><path d="M 150 64 L 446 64 L 446 130 L 150 130 Z M 150 64 " clip-rule="nonzero"/></clipPath><clipPath id="824dca417a"><path d="M 149.53125 62.054688 L 448.039062 126.652344 L 447.089844 131.042969 L 148.582031 66.441406 Z M 149.53125 62.054688 " clip-rule="nonzero"/></clipPath><clipPath id="5a5dd7ab65"><path d="M 150.535156 64.492188 L 150.378906 65.222656 L 287.855469 94.972656 L 288.015625 94.242188 Z M 308.332031 98.640625 L 308.175781 99.371094 L 445.652344 129.121094 L 445.8125 128.390625 Z M 308.332031 98.640625 " clip-rule="nonzero"/></clipPath><clipPath id="f8d15a61c8"><path d="M 150 127 L 446 127 L 446 130 L 150 130 Z M 150 127 " clip-rule="nonzero"/></clipPath><clipPath id="316c6fe5bc"><path d="M 148.972656 125.5 L 447.652344 126.21875 L 447.640625 130.710938 L 148.960938 129.988281 Z M 148.972656 125.5 " clip-rule="nonzero"/></clipPath><clipPath id="b049b13738"><path d="M 150.464844 127.671875 L 150.460938 128.421875 L 287.703125 128.75 L 287.703125 128.003906 Z M 308.492188 128.050781 L 308.492188 128.800781 L 445.730469 129.132812 L 445.734375 128.382812 Z M 308.492188 128.050781 " clip-rule="nonzero"/></clipPath><clipPath id="bad424366e"><path d="M 150 128 L 446 128 L 446 241 L 150 241 Z M 150 128 " clip-rule="nonzero"/></clipPath><clipPath id="52afc24376"><path d="M 148.167969 238.140625 L 446.585938 125.71875 L 448.167969 129.921875 L 149.75 242.34375 Z M 148.167969 238.140625 " clip-rule="nonzero"/></clipPath><clipPath id="b3b4f0bb96"><path d="M 150.332031 239.644531 L 150.597656 240.34375 L 288.503906 188.390625 L 288.242188 187.6875 Z M 307.695312 180.359375 L 307.960938 181.0625 L 445.867188 129.105469 L 445.601562 128.40625 Z M 307.695312 180.359375 " clip-rule="nonzero"/></clipPath><clipPath id="2b362cb803"><path d="M 288.542969 180 L 300 180 L 300 189 L 288.542969 189 Z M 288.542969 180 " clip-rule="nonzero"/></clipPath><clipPath id="499bfc9646"><path d="M 300 184 L 308 184 L 308 190.277344 L 300 190.277344 Z M 300 184 " clip-rule="nonzero"/></clipPath><clipPath id="42eb83e2d1"><path d="M 295 149.539062 L 298.515625 149.539062 L 298.515625 153 L 295 153 Z M 295 149.539062 " clip-rule="nonzero"/></clipPath><clipPath id="46afdacb19"><path d="M 295 154 L 298.515625 154 L 298.515625 158 L 295 158 Z M 295 154 " clip-rule="nonzero"/></clipPath><clipPath id="cc917fb567"><path d="M 295 159 L 298.515625 159 L 298.515625 162.265625 L 295 162.265625 Z M 295 159 " clip-rule="nonzero"/></clipPath><clipPath id="86dd96cfdd"><path d="M 785 124.816406 L 793.863281 124.816406 L 793.863281 133.796875 L 785 133.796875 Z M 785 124.816406 " clip-rule="nonzero"/></clipPath><clipPath id="14a8614bc8"><path d="M 494 101.445312 L 503 101.445312 L 503 108 L 494 108 Z M 494 101.445312 " clip-rule="nonzero"/></clipPath><clipPath id="c0ae48f7ca"><path d="M 487 145 L 492 145 L 492 154.59375 L 487 154.59375 Z M 487 145 " clip-rule="nonzero"/></clipPath><clipPath id="0972e5784b"><path d="M 503 145 L 510 145 L 510 154.59375 L 503 154.59375 Z M 503 145 " clip-rule="nonzero"/></clipPath><clipPath id="dddfc3606c"><path d="M 634 113 L 636.375 113 L 636.375 127 L 634 127 Z M 634 113 " clip-rule="nonzero"/></clipPath></defs><g clip-path="url(#a89863198d)"><path fill="#ffffff" d="M 0.855469 0 L 899.144531 0 L 899.144531 262 L 0.855469 262 Z M 0.855469 0 " fill-opacity="1" fill-rule="nonzero"/><path fill="#ffffff" d="M 0.855469 0 L 899.144531 0 L 899.144531 262 L 0.855469 262 Z M 0.855469 0 " fill-opacity="1" fill-rule="nonzero"/></g><g clip-path="url(#53f94e6498)"><path fill="#000000" d="M 143.027344 60.117188 C 142.507812 60.214844 142.3125 60.605469 142.3125 60.914062 C 142.3125 61.304688 142.621094 61.4375 142.847656 61.4375 C 143.335938 61.4375 143.675781 61.011719 143.675781 60.574219 C 143.675781 59.890625 142.898438 59.582031 142.214844 59.582031 C 141.226562 59.582031 140.675781 60.558594 140.527344 60.867188 C 140.15625 59.648438 139.148438 59.582031 138.859375 59.582031 C 137.203125 59.582031 136.328125 61.710938 136.328125 62.070312 C 136.328125 62.136719 136.390625 62.214844 136.503906 62.214844 C 136.636719 62.214844 136.667969 62.117188 136.699219 62.054688 C 137.25 60.25 138.339844 59.90625 138.808594 59.90625 C 139.539062 59.90625 139.683594 60.589844 139.683594 60.980469 C 139.683594 61.339844 139.585938 61.710938 139.394531 62.492188 L 138.839844 64.71875 C 138.597656 65.695312 138.128906 66.589844 137.269531 66.589844 C 137.1875 66.589844 136.78125 66.589844 136.441406 66.378906 C 137.023438 66.265625 137.152344 65.777344 137.152344 65.582031 C 137.152344 65.257812 136.910156 65.0625 136.601562 65.0625 C 136.214844 65.0625 135.792969 65.402344 135.792969 65.925781 C 135.792969 66.605469 136.554688 66.914062 137.25 66.914062 C 138.03125 66.914062 138.582031 66.296875 138.921875 65.632812 C 139.183594 66.589844 139.992188 66.914062 140.59375 66.914062 C 142.25 66.914062 143.125 64.785156 143.125 64.429688 C 143.125 64.347656 143.058594 64.28125 142.960938 64.28125 C 142.816406 64.28125 142.800781 64.363281 142.75 64.492188 C 142.3125 65.925781 141.371094 66.589844 140.640625 66.589844 C 140.074219 66.589844 139.765625 66.167969 139.765625 65.5 C 139.765625 65.144531 139.832031 64.882812 140.089844 63.808594 L 140.660156 61.597656 C 140.902344 60.621094 141.453125 59.90625 142.199219 59.90625 C 142.230469 59.90625 142.6875 59.90625 143.027344 60.117188 Z M 143.027344 60.117188 " fill-opacity="1" fill-rule="nonzero"/></g><path fill="#000000" d="M 147.960938 61.230469 C 147.960938 60.945312 147.949219 60.929688 147.757812 60.929688 C 147.230469 61.566406 146.433594 61.769531 145.675781 61.796875 C 145.636719 61.796875 145.566406 61.796875 145.554688 61.824219 C 145.539062 61.851562 145.539062 61.878906 145.539062 62.164062 C 145.960938 62.164062 146.664062 62.082031 147.203125 61.757812 L 147.203125 68.902344 C 147.203125 69.375 147.175781 69.539062 146.015625 69.539062 L 145.609375 69.539062 L 145.609375 69.890625 C 146.257812 69.875 146.933594 69.863281 147.582031 69.863281 C 148.230469 69.863281 148.910156 69.875 149.558594 69.890625 L 149.558594 69.539062 L 149.152344 69.539062 C 147.988281 69.539062 147.960938 69.390625 147.960938 68.902344 Z M 147.960938 61.230469 " fill-opacity="1" fill-rule="nonzero"/><g clip-path="url(#c20a7cfbfb)"><path fill="#000000" d="M 143.03125 123.078125 C 142.511719 123.175781 142.316406 123.566406 142.316406 123.875 C 142.316406 124.265625 142.625 124.398438 142.851562 124.398438 C 143.339844 124.398438 143.679688 123.972656 143.679688 123.535156 C 143.679688 122.851562 142.902344 122.542969 142.222656 122.542969 C 141.230469 122.542969 140.679688 123.519531 140.535156 123.828125 C 140.160156 122.609375 139.15625 122.542969 138.863281 122.542969 C 137.207031 122.542969 136.332031 124.671875 136.332031 125.03125 C 136.332031 125.097656 136.394531 125.175781 136.511719 125.175781 C 136.640625 125.175781 136.671875 125.082031 136.703125 125.015625 C 137.257812 123.210938 138.34375 122.867188 138.8125 122.867188 C 139.542969 122.867188 139.691406 123.550781 139.691406 123.941406 C 139.691406 124.300781 139.59375 124.671875 139.398438 125.453125 L 138.847656 127.683594 C 138.601562 128.65625 138.132812 129.550781 137.273438 129.550781 C 137.191406 129.550781 136.785156 129.550781 136.445312 129.339844 C 137.027344 129.226562 137.160156 128.738281 137.160156 128.542969 C 137.160156 128.21875 136.914062 128.023438 136.605469 128.023438 C 136.21875 128.023438 135.796875 128.363281 135.796875 128.886719 C 135.796875 129.566406 136.558594 129.878906 137.257812 129.878906 C 138.035156 129.878906 138.585938 129.257812 138.925781 128.59375 C 139.1875 129.550781 140 129.878906 140.597656 129.878906 C 142.253906 129.878906 143.128906 127.746094 143.128906 127.390625 C 143.128906 127.308594 143.0625 127.242188 142.96875 127.242188 C 142.820312 127.242188 142.804688 127.324219 142.757812 127.453125 C 142.316406 128.886719 141.378906 129.550781 140.648438 129.550781 C 140.078125 129.550781 139.769531 129.128906 139.769531 128.460938 C 139.769531 128.105469 139.835938 127.84375 140.09375 126.769531 L 140.664062 124.558594 C 140.90625 123.585938 141.457031 122.867188 142.203125 122.867188 C 142.238281 122.867188 142.691406 122.867188 143.03125 123.078125 Z M 143.03125 123.078125 " fill-opacity="1" fill-rule="nonzero"/></g><g clip-path="url(#a4bd16ab09)"><path fill="#000000" d="M 150.007812 130.75 L 149.765625 130.75 C 149.628906 131.714844 149.523438 131.875 149.46875 131.957031 C 149.398438 132.066406 148.425781 132.066406 148.238281 132.066406 L 145.640625 132.066406 C 146.128906 131.535156 147.074219 130.574219 148.222656 129.460938 C 149.046875 128.675781 150.007812 127.753906 150.007812 126.414062 C 150.007812 124.8125 148.738281 123.890625 147.316406 123.890625 C 145.828125 123.890625 144.921875 125.207031 144.921875 126.425781 C 144.921875 126.957031 145.316406 127.023438 145.476562 127.023438 C 145.613281 127.023438 146.019531 126.941406 146.019531 126.46875 C 146.019531 126.046875 145.667969 125.925781 145.476562 125.925781 C 145.398438 125.925781 145.316406 125.9375 145.261719 125.964844 C 145.519531 124.8125 146.304688 124.242188 147.128906 124.242188 C 148.304688 124.242188 149.074219 125.179688 149.074219 126.414062 C 149.074219 127.59375 148.386719 128.609375 147.613281 129.488281 L 144.921875 132.539062 L 144.921875 132.851562 L 149.683594 132.851562 Z M 150.007812 130.75 " fill-opacity="1" fill-rule="nonzero"/></g><path fill="#000000" d="M 140.5 236.09375 C 139.980469 236.191406 139.785156 236.582031 139.785156 236.890625 C 139.785156 237.28125 140.09375 237.410156 140.320312 237.410156 C 140.808594 237.410156 141.148438 236.988281 141.148438 236.550781 C 141.148438 235.867188 140.367188 235.558594 139.6875 235.558594 C 138.699219 235.558594 138.144531 236.53125 138 236.84375 C 137.628906 235.621094 136.621094 235.558594 136.328125 235.558594 C 134.675781 235.558594 133.796875 237.6875 133.796875 238.046875 C 133.796875 238.109375 133.863281 238.191406 133.976562 238.191406 C 134.105469 238.191406 134.140625 238.09375 134.171875 238.027344 C 134.722656 236.222656 135.808594 235.882812 136.28125 235.882812 C 137.011719 235.882812 137.15625 236.566406 137.15625 236.957031 C 137.15625 237.3125 137.058594 237.6875 136.863281 238.46875 L 136.3125 240.695312 C 136.070312 241.671875 135.597656 242.566406 134.738281 242.566406 C 134.65625 242.566406 134.253906 242.566406 133.910156 242.355469 C 134.496094 242.242188 134.625 241.753906 134.625 241.558594 C 134.625 241.234375 134.382812 241.039062 134.074219 241.039062 C 133.683594 241.039062 133.261719 241.378906 133.261719 241.898438 C 133.261719 242.582031 134.023438 242.890625 134.722656 242.890625 C 135.5 242.890625 136.054688 242.273438 136.394531 241.605469 C 136.652344 242.566406 137.464844 242.890625 138.066406 242.890625 C 139.71875 242.890625 140.597656 240.761719 140.597656 240.402344 C 140.597656 240.320312 140.53125 240.257812 140.433594 240.257812 C 140.289062 240.257812 140.273438 240.339844 140.222656 240.46875 C 139.785156 241.898438 138.84375 242.566406 138.113281 242.566406 C 137.546875 242.566406 137.238281 242.144531 137.238281 241.476562 C 137.238281 241.117188 137.300781 240.859375 137.5625 239.785156 L 138.128906 237.574219 C 138.375 236.597656 138.925781 235.882812 139.671875 235.882812 C 139.703125 235.882812 140.15625 235.882812 140.5 236.09375 Z M 140.5 236.09375 " fill-opacity="1" fill-rule="nonzero"/><g clip-path="url(#8cc98e0e14)"><path fill="#000000" d="M 144.621094 241.195312 C 144.648438 241.113281 144.988281 240.4375 145.488281 240.003906 C 145.839844 239.679688 146.296875 239.460938 146.828125 239.460938 C 147.367188 239.460938 147.554688 239.867188 147.554688 240.410156 C 147.554688 241.183594 147.003906 242.726562 146.730469 243.460938 C 146.609375 243.785156 146.542969 243.960938 146.542969 244.207031 C 146.542969 244.816406 146.960938 245.304688 147.609375 245.304688 C 148.867188 245.304688 149.339844 243.3125 149.339844 243.230469 C 149.339844 243.160156 149.289062 243.105469 149.207031 243.105469 C 149.085938 243.105469 149.070312 243.148438 149.003906 243.378906 C 148.691406 244.488281 148.179688 245.03125 147.652344 245.03125 C 147.515625 245.03125 147.300781 245.019531 147.300781 244.585938 C 147.300781 244.246094 147.449219 243.839844 147.53125 243.648438 C 147.800781 242.902344 148.367188 241.386719 148.367188 240.613281 C 148.367188 239.800781 147.894531 239.191406 146.867188 239.191406 C 145.664062 239.191406 145.027344 240.042969 144.785156 240.382812 C 144.742188 239.609375 144.1875 239.191406 143.59375 239.191406 C 143.160156 239.191406 142.863281 239.449219 142.632812 239.910156 C 142.390625 240.394531 142.199219 241.210938 142.199219 241.265625 C 142.199219 241.316406 142.253906 241.386719 142.351562 241.386719 C 142.457031 241.386719 142.472656 241.371094 142.550781 241.058594 C 142.769531 240.234375 143.011719 239.460938 143.554688 239.460938 C 143.863281 239.460938 143.972656 239.679688 143.972656 240.085938 C 143.972656 240.382812 143.835938 240.910156 143.742188 241.332031 L 143.363281 242.796875 C 143.308594 243.054688 143.160156 243.664062 143.09375 243.90625 C 143 244.257812 142.851562 244.898438 142.851562 244.964844 C 142.851562 245.152344 143 245.304688 143.203125 245.304688 C 143.363281 245.304688 143.554688 245.222656 143.660156 245.019531 C 143.6875 244.949219 143.808594 244.476562 143.878906 244.207031 L 144.175781 242.984375 Z M 144.621094 241.195312 " fill-opacity="1" fill-rule="nonzero"/></g><g clip-path="url(#12a2816d4b)"><path fill="#000000" d="M 114.324219 18.929688 C 113.785156 19.03125 113.585938 19.421875 113.585938 19.734375 C 113.585938 20.128906 113.902344 20.257812 114.136719 20.257812 C 114.640625 20.257812 114.992188 19.832031 114.992188 19.390625 C 114.992188 18.703125 114.1875 18.390625 113.484375 18.390625 C 112.464844 18.390625 111.894531 19.375 111.746094 19.683594 C 111.359375 18.457031 110.320312 18.390625 110.019531 18.390625 C 108.3125 18.390625 107.410156 20.539062 107.410156 20.898438 C 107.410156 20.964844 107.476562 21.046875 107.59375 21.046875 C 107.726562 21.046875 107.761719 20.949219 107.792969 20.882812 C 108.363281 19.0625 109.484375 18.71875 109.96875 18.71875 C 110.722656 18.71875 110.875 19.40625 110.875 19.800781 C 110.875 20.160156 110.773438 20.539062 110.574219 21.324219 L 110.003906 23.570312 C 109.753906 24.554688 109.269531 25.457031 108.378906 25.457031 C 108.296875 25.457031 107.878906 25.457031 107.527344 25.246094 C 108.128906 25.128906 108.261719 24.636719 108.261719 24.441406 C 108.261719 24.113281 108.011719 23.917969 107.695312 23.917969 C 107.292969 23.917969 106.859375 24.261719 106.859375 24.785156 C 106.859375 25.472656 107.644531 25.785156 108.363281 25.785156 C 109.167969 25.785156 109.738281 25.164062 110.085938 24.492188 C 110.355469 25.457031 111.191406 25.785156 111.8125 25.785156 C 113.519531 25.785156 114.421875 23.636719 114.421875 23.277344 C 114.421875 23.195312 114.355469 23.128906 114.253906 23.128906 C 114.105469 23.128906 114.089844 23.210938 114.039062 23.34375 C 113.585938 24.785156 112.617188 25.457031 111.863281 25.457031 C 111.277344 25.457031 110.957031 25.03125 110.957031 24.359375 C 110.957031 24 111.023438 23.734375 111.292969 22.652344 L 111.878906 20.421875 C 112.128906 19.4375 112.699219 18.71875 113.46875 18.71875 C 113.503906 18.71875 113.972656 18.71875 114.324219 18.929688 Z M 114.324219 18.929688 " fill-opacity="1" fill-rule="nonzero"/></g><g clip-path="url(#ef3061b2af)"><path fill="#000000" d="M 121.5625 24.398438 C 121.5625 23.5625 121.546875 22.140625 120.960938 21.046875 C 120.445312 20.089844 119.621094 19.75 118.898438 19.75 C 118.226562 19.75 117.375 20.050781 116.847656 21.035156 C 116.289062 22.058594 116.230469 23.332031 116.230469 24.398438 C 116.230469 25.175781 116.246094 26.367188 116.679688 27.40625 C 117.277344 28.8125 118.351562 29.003906 118.898438 29.003906 C 119.539062 29.003906 120.515625 28.746094 121.085938 27.445312 C 121.507812 26.503906 121.5625 25.394531 121.5625 24.398438 Z M 118.898438 28.785156 C 118.003906 28.785156 117.472656 28.035156 117.277344 26.996094 C 117.125 26.1875 117.125 25.011719 117.125 24.246094 C 117.125 23.195312 117.125 22.320312 117.304688 21.484375 C 117.570312 20.324219 118.351562 19.96875 118.898438 19.96875 C 119.46875 19.96875 120.207031 20.335938 120.472656 21.457031 C 120.65625 22.238281 120.667969 23.152344 120.667969 24.246094 C 120.667969 25.136719 120.667969 26.230469 120.5 27.035156 C 120.207031 28.527344 119.386719 28.785156 118.898438 28.785156 Z M 118.898438 28.785156 " fill-opacity="1" fill-rule="nonzero"/></g><path fill="#000000" d="M 137.847656 20.359375 C 138.101562 20.359375 138.351562 20.359375 138.351562 20.078125 C 138.351562 19.785156 138.066406 19.785156 137.78125 19.785156 L 128.425781 19.785156 C 128.140625 19.785156 127.855469 19.785156 127.855469 20.078125 C 127.855469 20.359375 128.109375 20.359375 128.359375 20.359375 Z M 137.78125 23.277344 C 138.066406 23.277344 138.351562 23.277344 138.351562 22.980469 C 138.351562 22.703125 138.101562 22.703125 137.847656 22.703125 L 128.359375 22.703125 C 128.109375 22.703125 127.855469 22.703125 127.855469 22.980469 C 127.855469 23.277344 128.140625 23.277344 128.425781 23.277344 Z M 137.78125 23.277344 " fill-opacity="1" fill-rule="nonzero"/><g clip-path="url(#78ff3deb23)"><path fill="#000000" d="M 148.238281 15.140625 C 148.238281 14.796875 148.21875 14.78125 147.984375 14.78125 C 147.332031 15.550781 146.34375 15.796875 145.40625 15.832031 C 145.359375 15.832031 145.273438 15.832031 145.257812 15.863281 C 145.242188 15.898438 145.242188 15.929688 145.242188 16.273438 C 145.757812 16.273438 146.628906 16.175781 147.300781 15.78125 L 147.300781 24.425781 C 147.300781 25 147.265625 25.195312 145.828125 25.195312 L 145.324219 25.195312 L 145.324219 25.621094 C 146.128906 25.605469 146.964844 25.589844 147.769531 25.589844 C 148.570312 25.589844 149.410156 25.605469 150.210938 25.621094 L 150.210938 25.195312 L 149.710938 25.195312 C 148.269531 25.195312 148.238281 25.015625 148.238281 24.425781 Z M 148.238281 15.140625 " fill-opacity="1" fill-rule="nonzero"/></g><g clip-path="url(#7d02cf3472)"><path fill="#000000" d="M 147.34375 178.894531 C 147.34375 178.109375 146.6875 177.601562 146.003906 177.601562 C 145.347656 177.601562 144.664062 178.109375 144.664062 178.894531 C 144.664062 179.683594 145.316406 180.1875 146.003906 180.1875 C 146.65625 180.1875 147.34375 179.683594 147.34375 178.894531 Z M 147.34375 178.894531 " fill-opacity="1" fill-rule="nonzero"/></g><g clip-path="url(#814cb3ce58)"><path fill="#000000" d="M 147.34375 183.964844 C 147.34375 183.175781 146.6875 182.671875 146.003906 182.671875 C 145.347656 182.671875 144.664062 183.175781 144.664062 183.964844 C 144.664062 184.753906 145.316406 185.257812 146.003906 185.257812 C 146.65625 185.257812 147.34375 184.753906 147.34375 183.964844 Z M 147.34375 183.964844 " fill-opacity="1" fill-rule="nonzero"/></g><g clip-path="url(#4c87296861)"><path fill="#000000" d="M 147.34375 189.035156 C 147.34375 188.246094 146.6875 187.742188 146.003906 187.742188 C 145.347656 187.742188 144.664062 188.246094 144.664062 189.035156 C 144.664062 189.824219 145.316406 190.328125 146.003906 190.328125 C 146.65625 190.328125 147.34375 189.824219 147.34375 189.035156 Z M 147.34375 189.035156 " fill-opacity="1" fill-rule="nonzero"/></g><g clip-path="url(#af3c3d3fcd)"><g clip-path="url(#4edd06e16d)"><path stroke-linecap="butt" transform="matrix(0.748574, 0, 0, 0.748574, 445.736415, 82.166204)" fill="none" stroke-linejoin="miter" d="M 15.996443 0.00235757 L 243.037471 0.00235757 C 247.279912 0.00235757 251.35015 1.687854 254.350646 4.68835 C 257.351143 7.688846 259.036639 11.753866 259.036639 15.996307 L 259.036639 108.468992 C 259.036639 112.711433 257.351143 116.781671 254.350646 119.782168 C 251.35015 122.782664 247.279912 124.46816 243.037471 124.46816 L 15.996443 124.46816 C 11.754002 124.46816 7.683764 122.782664 4.688486 119.782168 C 1.68799 116.781671 0.00249352 112.711433 0.00249352 108.468992 L 0.00249352 15.996307 C 0.00249352 11.753866 1.68799 7.688846 4.688486 4.68835 C 7.683764 1.687854 11.754002 0.00235757 15.996443 0.00235757 Z M 15.996443 0.00235757 " stroke="#000000" stroke-width="2" stroke-opacity="1" stroke-miterlimit="4"/></g></g><g clip-path="url(#be6f152287)"><path fill="#000000" d="M 486.050781 70.199219 L 488.566406 70.199219 L 488.566406 69.734375 L 486.050781 69.734375 L 486.050781 66.429688 L 485.726562 66.429688 C 485.691406 68.269531 485.0625 69.878906 483.535156 69.914062 L 483.535156 70.199219 L 485.097656 70.199219 L 485.097656 75.222656 C 485.097656 75.5625 485.097656 77.5625 487.183594 77.5625 C 488.242188 77.5625 488.855469 76.527344 488.855469 75.203125 L 488.855469 74.183594 L 488.53125 74.183594 L 488.53125 75.183594 C 488.53125 76.417969 488.046875 77.242188 487.289062 77.242188 C 486.769531 77.242188 486.050781 76.882812 486.050781 75.257812 Z M 486.050781 70.199219 " fill-opacity="1" fill-rule="nonzero"/></g><g clip-path="url(#846f39a98a)"><path fill="#000000" d="M 492.394531 73.203125 C 492.394531 71.484375 493.132812 69.878906 494.480469 69.878906 C 494.605469 69.878906 494.730469 69.894531 494.859375 69.949219 C 494.859375 69.949219 494.460938 70.074219 494.460938 70.539062 C 494.460938 70.96875 494.804688 71.148438 495.074219 71.148438 C 495.289062 71.148438 495.683594 71.023438 495.683594 70.519531 C 495.683594 69.949219 495.109375 69.59375 494.5 69.59375 C 493.132812 69.59375 492.539062 70.914062 492.359375 71.539062 L 492.34375 71.539062 L 492.34375 69.59375 L 490.257812 69.789062 L 490.257812 70.253906 C 491.316406 70.253906 491.480469 70.359375 491.480469 71.21875 L 491.480469 76.1875 C 491.480469 76.867188 491.40625 76.953125 490.257812 76.953125 L 490.257812 77.417969 C 490.6875 77.382812 491.515625 77.382812 491.984375 77.382812 C 492.503906 77.382812 493.421875 77.382812 493.90625 77.417969 L 493.90625 76.953125 C 492.613281 76.953125 492.394531 76.953125 492.394531 76.152344 Z M 492.394531 73.203125 " fill-opacity="1" fill-rule="nonzero"/></g><g clip-path="url(#144ccd9455)"><path fill="#000000" d="M 502.53125 72.789062 C 502.53125 71.613281 502.53125 70.984375 501.777344 70.289062 C 501.113281 69.699219 500.339844 69.519531 499.730469 69.519531 C 498.308594 69.519531 497.285156 70.628906 497.285156 71.808594 C 497.285156 72.46875 497.824219 72.503906 497.933594 72.503906 C 498.164062 72.503906 498.578125 72.363281 498.578125 71.863281 C 498.578125 71.414062 498.238281 71.21875 497.933594 71.21875 C 497.859375 71.21875 497.769531 71.234375 497.714844 71.253906 C 498.09375 70.128906 499.0625 69.804688 499.691406 69.804688 C 500.589844 69.804688 501.578125 70.59375 501.578125 72.09375 L 501.578125 72.878906 C 500.519531 72.914062 499.242188 73.058594 498.238281 73.59375 C 497.105469 74.21875 496.78125 75.113281 496.78125 75.792969 C 496.78125 77.167969 498.398438 77.5625 499.351562 77.5625 C 500.339844 77.5625 501.257812 77.007812 501.652344 75.988281 C 501.6875 76.777344 502.191406 77.492188 502.980469 77.492188 C 503.359375 77.492188 504.3125 77.242188 504.3125 75.828125 L 504.3125 74.828125 L 503.988281 74.828125 L 503.988281 75.847656 C 503.988281 76.9375 503.503906 77.078125 503.269531 77.078125 C 502.53125 77.078125 502.53125 76.152344 502.53125 75.363281 Z M 501.578125 74.933594 C 501.578125 76.488281 500.464844 77.277344 499.476562 77.277344 C 498.578125 77.277344 497.878906 76.613281 497.878906 75.792969 C 497.878906 75.257812 498.113281 74.308594 499.152344 73.738281 C 500.015625 73.253906 501.003906 73.183594 501.578125 73.148438 Z M 501.578125 74.933594 " fill-opacity="1" fill-rule="nonzero"/></g><g clip-path="url(#47670292b4)"><path fill="#000000" d="M 511.761719 71.988281 C 511.761719 71.074219 511.582031 69.59375 509.460938 69.59375 C 508.042969 69.59375 507.304688 70.683594 507.035156 71.398438 L 507.015625 71.398438 L 507.015625 69.59375 L 504.898438 69.789062 L 504.898438 70.253906 C 505.957031 70.253906 506.117188 70.359375 506.117188 71.21875 L 506.117188 76.1875 C 506.117188 76.867188 506.046875 76.953125 504.898438 76.953125 L 504.898438 77.417969 C 505.328125 77.382812 506.117188 77.382812 506.585938 77.382812 C 507.054688 77.382812 507.863281 77.382812 508.292969 77.417969 L 508.292969 76.953125 C 507.144531 76.953125 507.070312 76.882812 507.070312 76.1875 L 507.070312 72.753906 C 507.070312 71.109375 508.078125 69.878906 509.335938 69.878906 C 510.664062 69.878906 510.808594 71.058594 510.808594 71.914062 L 510.808594 76.1875 C 510.808594 76.867188 510.734375 76.953125 509.585938 76.953125 L 509.585938 77.417969 C 510.015625 77.382812 510.808594 77.382812 511.273438 77.382812 C 511.742188 77.382812 512.550781 77.382812 512.980469 77.417969 L 512.980469 76.953125 C 511.832031 76.953125 511.761719 76.882812 511.761719 76.1875 Z M 511.761719 71.988281 " fill-opacity="1" fill-rule="nonzero"/></g><g clip-path="url(#0126d831e1)"><path fill="#000000" d="M 519.035156 69.878906 C 519.035156 69.554688 519.015625 69.539062 518.910156 69.539062 C 518.835938 69.539062 518.820312 69.554688 518.601562 69.824219 C 518.550781 69.894531 518.386719 70.074219 518.335938 70.144531 C 517.757812 69.539062 516.949219 69.519531 516.644531 69.519531 C 514.652344 69.519531 513.933594 70.558594 513.933594 71.59375 C 513.933594 73.203125 515.765625 73.578125 516.285156 73.683594 C 517.417969 73.917969 517.8125 73.988281 518.191406 74.308594 C 518.425781 74.523438 518.820312 74.917969 518.820312 75.5625 C 518.820312 76.3125 518.386719 77.277344 516.734375 77.277344 C 515.171875 77.277344 514.613281 76.097656 514.292969 74.523438 C 514.238281 74.273438 514.238281 74.257812 514.09375 74.257812 C 513.949219 74.257812 513.933594 74.273438 513.933594 74.632812 L 513.933594 77.203125 C 513.933594 77.527344 513.949219 77.542969 514.058594 77.542969 C 514.148438 77.542969 514.164062 77.527344 514.253906 77.382812 C 514.363281 77.222656 514.632812 76.792969 514.742188 76.613281 C 515.101562 77.097656 515.730469 77.5625 516.734375 77.5625 C 518.515625 77.5625 519.464844 76.597656 519.464844 75.203125 C 519.464844 74.292969 518.980469 73.808594 518.746094 73.59375 C 518.207031 73.042969 517.578125 72.914062 516.824219 72.773438 C 515.835938 72.558594 514.578125 72.308594 514.578125 71.21875 C 514.578125 70.753906 514.832031 69.769531 516.644531 69.769531 C 518.566406 69.769531 518.675781 71.558594 518.710938 72.128906 C 518.730469 72.21875 518.820312 72.238281 518.871094 72.238281 C 519.035156 72.238281 519.035156 72.183594 519.035156 71.878906 Z M 519.035156 69.878906 " fill-opacity="1" fill-rule="nonzero"/></g><g clip-path="url(#374e96ab4e)"><path fill="#000000" d="M 522.6875 70.199219 L 524.738281 70.199219 L 524.738281 69.734375 L 522.652344 69.734375 L 522.652344 67.574219 C 522.652344 66.089844 523.40625 65.160156 524.179688 65.160156 C 524.414062 65.160156 524.683594 65.230469 524.863281 65.355469 C 524.71875 65.394531 524.339844 65.519531 524.339844 65.964844 C 524.339844 66.429688 524.699219 66.570312 524.953125 66.570312 C 525.203125 66.570312 525.5625 66.429688 525.5625 65.964844 C 525.5625 65.285156 524.917969 64.875 524.199219 64.875 C 523.171875 64.875 521.773438 65.714844 521.773438 67.609375 L 521.773438 69.734375 L 520.335938 69.734375 L 520.335938 70.199219 L 521.773438 70.199219 L 521.773438 76.1875 C 521.773438 76.867188 521.699219 76.953125 520.550781 76.953125 L 520.550781 77.417969 C 520.980469 77.382812 521.808594 77.382812 522.273438 77.382812 C 522.796875 77.382812 523.710938 77.382812 524.199219 77.417969 L 524.199219 76.953125 C 522.902344 76.953125 522.6875 76.953125 522.6875 76.152344 Z M 522.6875 70.199219 " fill-opacity="1" fill-rule="nonzero"/></g><g clip-path="url(#4e9af7d3e9)"><path fill="#000000" d="M 531.738281 73.21875 C 531.8125 73.148438 531.8125 73.113281 531.8125 72.933594 C 531.8125 71.109375 530.839844 69.519531 528.792969 69.519531 C 526.886719 69.519531 525.378906 71.324219 525.378906 73.523438 C 525.378906 75.847656 527.085938 77.5625 528.988281 77.5625 C 531.003906 77.5625 531.792969 75.667969 531.792969 75.292969 C 531.792969 75.167969 531.683594 75.167969 531.648438 75.167969 C 531.523438 75.167969 531.503906 75.203125 531.433594 75.417969 C 531.039062 76.632812 530.050781 77.242188 529.117188 77.242188 C 528.34375 77.242188 527.570312 76.8125 527.085938 76.023438 C 526.527344 75.113281 526.527344 74.058594 526.527344 73.21875 Z M 526.546875 72.953125 C 526.671875 70.378906 528.054688 69.804688 528.773438 69.804688 C 529.996094 69.804688 530.824219 70.949219 530.839844 72.953125 Z M 526.546875 72.953125 " fill-opacity="1" fill-rule="nonzero"/></g><g clip-path="url(#cc2b1d625f)"><path fill="#000000" d="M 534.890625 73.203125 C 534.890625 71.484375 535.625 69.878906 536.972656 69.878906 C 537.101562 69.878906 537.226562 69.894531 537.351562 69.949219 C 537.351562 69.949219 536.957031 70.074219 536.957031 70.539062 C 536.957031 70.96875 537.296875 71.148438 537.566406 71.148438 C 537.78125 71.148438 538.179688 71.023438 538.179688 70.519531 C 538.179688 69.949219 537.601562 69.59375 536.992188 69.59375 C 535.625 69.59375 535.035156 70.914062 534.855469 71.539062 L 534.835938 71.539062 L 534.835938 69.59375 L 532.753906 69.789062 L 532.753906 70.253906 C 533.8125 70.253906 533.972656 70.359375 533.972656 71.21875 L 533.972656 76.1875 C 533.972656 76.867188 533.902344 76.953125 532.753906 76.953125 L 532.753906 77.417969 C 533.183594 77.382812 534.011719 77.382812 534.476562 77.382812 C 534.996094 77.382812 535.914062 77.382812 536.398438 77.417969 L 536.398438 76.953125 C 535.105469 76.953125 534.890625 76.953125 534.890625 76.152344 Z M 534.890625 73.203125 " fill-opacity="1" fill-rule="nonzero"/></g><g clip-path="url(#6ec04e72e7)"><path fill="#000000" d="M 546.730469 70.199219 L 548.78125 70.199219 L 548.78125 69.734375 L 546.695312 69.734375 L 546.695312 67.574219 C 546.695312 66.089844 547.449219 65.160156 548.222656 65.160156 C 548.457031 65.160156 548.726562 65.230469 548.90625 65.355469 C 548.761719 65.394531 548.382812 65.519531 548.382812 65.964844 C 548.382812 66.429688 548.742188 66.570312 548.996094 66.570312 C 549.246094 66.570312 549.605469 66.429688 549.605469 65.964844 C 549.605469 65.285156 548.960938 64.875 548.242188 64.875 C 547.214844 64.875 545.816406 65.714844 545.816406 67.609375 L 545.816406 69.734375 L 544.378906 69.734375 L 544.378906 70.199219 L 545.816406 70.199219 L 545.816406 76.1875 C 545.816406 76.867188 545.742188 76.953125 544.59375 76.953125 L 544.59375 77.417969 C 545.023438 77.382812 545.851562 77.382812 546.316406 77.382812 C 546.839844 77.382812 547.753906 77.382812 548.242188 77.417969 L 548.242188 76.953125 C 546.945312 76.953125 546.730469 76.953125 546.730469 76.152344 Z M 546.730469 70.199219 " fill-opacity="1" fill-rule="nonzero"/></g><g clip-path="url(#2c85a9f4e4)"><path fill="#000000" d="M 554.21875 69.789062 L 554.21875 70.253906 C 555.277344 70.253906 555.441406 70.359375 555.441406 71.21875 L 555.441406 74.46875 C 555.441406 75.972656 554.632812 77.277344 553.300781 77.277344 C 551.828125 77.277344 551.703125 76.402344 551.703125 75.472656 L 551.703125 69.59375 L 549.53125 69.789062 L 549.53125 70.253906 C 550.25 70.253906 550.734375 70.253906 550.75 70.96875 L 550.75 74.398438 C 550.75 75.597656 550.75 76.363281 551.21875 76.867188 C 551.453125 77.097656 551.902344 77.5625 553.195312 77.5625 C 554.722656 77.5625 555.316406 76.277344 555.457031 75.898438 L 555.476562 75.898438 L 555.476562 77.5625 L 557.613281 77.417969 L 557.613281 76.953125 C 556.554688 76.953125 556.394531 76.847656 556.394531 75.988281 L 556.394531 69.59375 Z M 554.21875 69.789062 " fill-opacity="1" fill-rule="nonzero"/></g><g clip-path="url(#2712815811)"><path fill="#000000" d="M 565.570312 71.988281 C 565.570312 71.074219 565.390625 69.59375 563.273438 69.59375 C 561.851562 69.59375 561.117188 70.683594 560.847656 71.398438 L 560.828125 71.398438 L 560.828125 69.59375 L 558.707031 69.789062 L 558.707031 70.253906 C 559.769531 70.253906 559.929688 70.359375 559.929688 71.21875 L 559.929688 76.1875 C 559.929688 76.867188 559.859375 76.953125 558.707031 76.953125 L 558.707031 77.417969 C 559.140625 77.382812 559.929688 77.382812 560.398438 77.382812 C 560.863281 77.382812 561.671875 77.382812 562.105469 77.417969 L 562.105469 76.953125 C 560.953125 76.953125 560.882812 76.882812 560.882812 76.1875 L 560.882812 72.753906 C 560.882812 71.109375 561.886719 69.878906 563.144531 69.878906 C 564.476562 69.878906 564.621094 71.058594 564.621094 71.914062 L 564.621094 76.1875 C 564.621094 76.867188 564.546875 76.953125 563.398438 76.953125 L 563.398438 77.417969 C 563.828125 77.382812 564.621094 77.382812 565.085938 77.382812 C 565.554688 77.382812 566.363281 77.382812 566.792969 77.417969 L 566.792969 76.953125 C 565.644531 76.953125 565.570312 76.882812 565.570312 76.1875 Z M 565.570312 71.988281 " fill-opacity="1" fill-rule="nonzero"/></g><g clip-path="url(#8c7adad263)"><path fill="#000000" d="M 573.566406 71.164062 C 573.222656 71.164062 572.71875 71.164062 572.71875 71.789062 C 572.71875 72.289062 573.132812 72.433594 573.367188 72.433594 C 573.492188 72.433594 574.015625 72.378906 574.015625 71.753906 C 574.015625 70.484375 572.792969 69.519531 571.410156 69.519531 C 569.503906 69.519531 567.886719 71.273438 567.886719 73.558594 C 567.886719 75.9375 569.574219 77.5625 571.410156 77.5625 C 573.636719 77.5625 574.195312 75.507812 574.195312 75.308594 C 574.195312 75.238281 574.175781 75.183594 574.050781 75.183594 C 573.925781 75.183594 573.90625 75.203125 573.835938 75.4375 C 573.367188 76.882812 572.34375 77.242188 571.570312 77.242188 C 570.421875 77.242188 569.035156 76.1875 569.035156 73.542969 C 569.035156 70.824219 570.367188 69.84375 571.425781 69.84375 C 572.128906 69.84375 573.167969 70.183594 573.566406 71.164062 Z M 573.566406 71.164062 " fill-opacity="1" fill-rule="nonzero"/></g><g clip-path="url(#1e6808794c)"><path fill="#000000" d="M 577.308594 70.199219 L 579.824219 70.199219 L 579.824219 69.734375 L 577.308594 69.734375 L 577.308594 66.429688 L 576.984375 66.429688 C 576.949219 68.269531 576.320312 69.878906 574.792969 69.914062 L 574.792969 70.199219 L 576.355469 70.199219 L 576.355469 75.222656 C 576.355469 75.5625 576.355469 77.5625 578.441406 77.5625 C 579.5 77.5625 580.113281 76.527344 580.113281 75.203125 L 580.113281 74.183594 L 579.789062 74.183594 L 579.789062 75.183594 C 579.789062 76.417969 579.304688 77.242188 578.546875 77.242188 C 578.027344 77.242188 577.308594 76.882812 577.308594 75.257812 Z M 577.308594 70.199219 " fill-opacity="1" fill-rule="nonzero"/></g><g clip-path="url(#c2a7a2fd8a)"><path fill="#000000" d="M 583.742188 66.410156 C 583.742188 66.019531 583.421875 65.679688 583.007812 65.679688 C 582.613281 65.679688 582.269531 66 582.269531 66.410156 C 582.269531 66.804688 582.59375 67.144531 583.007812 67.144531 C 583.402344 67.144531 583.742188 66.820312 583.742188 66.410156 Z M 581.640625 69.789062 L 581.640625 70.253906 C 582.648438 70.253906 582.792969 70.359375 582.792969 71.21875 L 582.792969 76.1875 C 582.792969 76.867188 582.71875 76.953125 581.570312 76.953125 L 581.570312 77.417969 C 582 77.382812 582.773438 77.382812 583.222656 77.382812 C 583.652344 77.382812 584.390625 77.382812 584.804688 77.417969 L 584.804688 76.953125 C 583.742188 76.953125 583.707031 76.847656 583.707031 76.203125 L 583.707031 69.59375 Z M 581.640625 69.789062 " fill-opacity="1" fill-rule="nonzero"/></g><g clip-path="url(#480c0b0777)"><path fill="#000000" d="M 593.1875 73.59375 C 593.1875 71.308594 591.515625 69.519531 589.558594 69.519531 C 587.597656 69.519531 585.929688 71.308594 585.929688 73.59375 C 585.929688 75.847656 587.597656 77.5625 589.558594 77.5625 C 591.515625 77.5625 593.1875 75.847656 593.1875 73.59375 Z M 589.558594 77.242188 C 588.714844 77.242188 587.996094 76.738281 587.582031 76.042969 C 587.132812 75.238281 587.078125 74.238281 587.078125 73.453125 C 587.078125 72.703125 587.113281 71.773438 587.582031 70.96875 C 587.941406 70.378906 588.640625 69.804688 589.558594 69.804688 C 590.367188 69.804688 591.050781 70.253906 591.480469 70.878906 C 592.039062 71.71875 592.039062 72.898438 592.039062 73.453125 C 592.039062 74.148438 592 75.222656 591.515625 76.078125 C 591.011719 76.902344 590.242188 77.242188 589.558594 77.242188 Z M 589.558594 77.242188 " fill-opacity="1" fill-rule="nonzero"/></g><g clip-path="url(#e5c4a5858a)"><path fill="#000000" d="M 601.140625 71.988281 C 601.140625 71.074219 600.960938 69.59375 598.839844 69.59375 C 597.421875 69.59375 596.683594 70.683594 596.414062 71.398438 L 596.398438 71.398438 L 596.398438 69.59375 L 594.277344 69.789062 L 594.277344 70.253906 C 595.335938 70.253906 595.5 70.359375 595.5 71.21875 L 595.5 76.1875 C 595.5 76.867188 595.425781 76.953125 594.277344 76.953125 L 594.277344 77.417969 C 594.707031 77.382812 595.5 77.382812 595.964844 77.382812 C 596.433594 77.382812 597.242188 77.382812 597.671875 77.417969 L 597.671875 76.953125 C 596.523438 76.953125 596.449219 76.882812 596.449219 76.1875 L 596.449219 72.753906 C 596.449219 71.109375 597.457031 69.878906 598.714844 69.878906 C 600.042969 69.878906 600.1875 71.058594 600.1875 71.914062 L 600.1875 76.1875 C 600.1875 76.867188 600.117188 76.953125 598.964844 76.953125 L 598.964844 77.417969 C 599.398438 77.382812 600.1875 77.382812 600.65625 77.382812 C 601.121094 77.382812 601.929688 77.382812 602.363281 77.417969 L 602.363281 76.953125 C 601.210938 76.953125 601.140625 76.882812 601.140625 76.1875 Z M 601.140625 71.988281 " fill-opacity="1" fill-rule="nonzero"/></g><g clip-path="url(#d899f22ca2)"><g clip-path="url(#47cad02cf9)"><g clip-path="url(#0979e5647e)"><path stroke-linecap="butt" transform="matrix(0.704016, 0.254409, -0.254409, 0.704016, 154.124771, 11.919023)" fill="none" stroke-linejoin="miter" d="M -0.00141111 14.397426 L 419.406693 14.399949 " stroke="#000000" stroke-width="1" stroke-opacity="1" stroke-miterlimit="4"/></g></g></g><g fill="#000000" fill-opacity="1"><g transform="translate(297.067091, 78.219386)"><g/></g></g><g fill="#000000" fill-opacity="1"><g transform="translate(300.018329, 79.28587)"><g/></g></g><g fill="#000000" fill-opacity="1"><g transform="translate(302.969566, 80.352354)"><g/></g></g><g fill="#000000" fill-opacity="1"><g transform="translate(305.920804, 81.418839)"><g/></g></g><g clip-path="url(#5fb06c089a)"><g clip-path="url(#824dca417a)"><g clip-path="url(#5a5dd7ab65)"><path stroke-linecap="butt" transform="matrix(0.731637, 0.158335, -0.158335, 0.731637, 152.73735, 54.32195)" fill="none" stroke-linejoin="miter" d="M -0.000973301 14.397396 L 403.578467 14.399748 " stroke="#000000" stroke-width="1" stroke-opacity="1" stroke-miterlimit="4"/></g></g></g><g fill="#000000" fill-opacity="1"><g transform="translate(297.443275, 99.73057)"><g/></g></g><g fill="#000000" fill-opacity="1"><g transform="translate(300.5103, 100.394309)"><g/></g></g><g fill="#000000" fill-opacity="1"><g transform="translate(303.577325, 101.058048)"><g/></g></g><g fill="#000000" fill-opacity="1"><g transform="translate(306.64435, 101.721787)"><g/></g></g><g clip-path="url(#f8d15a61c8)"><g clip-path="url(#316c6fe5bc)"><g clip-path="url(#b049b13738)"><path stroke-linecap="butt" transform="matrix(0.748572, 0.0018031, -0.0018031, 0.748572, 150.489623, 117.267598)" fill="none" stroke-linejoin="miter" d="M 0.0015828 14.399785 L 394.445358 14.399404 " stroke="#000000" stroke-width="1" stroke-opacity="1" stroke-miterlimit="4"/></g></g></g><g fill="#000000" fill-opacity="1"><g transform="translate(298.077172, 131.396901)"><g/></g></g><g fill="#000000" fill-opacity="1"><g transform="translate(301.215186, 131.404459)"><g/></g></g><g fill="#000000" fill-opacity="1"><g transform="translate(304.353201, 131.412018)"><g/></g></g><g fill="#000000" fill-opacity="1"><g transform="translate(307.491215, 131.419577)"><g/></g></g><g clip-path="url(#bad424366e)"><g clip-path="url(#52afc24376)"><g clip-path="url(#b3b4f0bb96)"><path stroke-linecap="butt" transform="matrix(0.700511, -0.263908, 0.263908, 0.700511, 146.665741, 229.90826)" fill="none" stroke-linejoin="miter" d="M -0.00168263 14.40004 L 421.505797 14.395566 " stroke="#000000" stroke-width="1" stroke-opacity="1" stroke-miterlimit="4"/></g></g></g><g fill="#000000" fill-opacity="1"><g transform="translate(299.143432, 187.183259)"><g/></g></g><g fill="#000000" fill-opacity="1"><g transform="translate(302.079975, 186.076957)"><g/></g></g><g fill="#000000" fill-opacity="1"><g transform="translate(305.016519, 184.970656)"><g/></g></g><g fill="#000000" fill-opacity="1"><g transform="translate(307.953063, 183.864355)"><g/></g></g><path fill="#000000" d="M 294.550781 75.648438 C 294.910156 76.632812 295.929688 76.8125 296.554688 76.8125 C 297.804688 76.8125 298.546875 75.730469 299.007812 74.597656 C 299.386719 73.644531 299.992188 71.480469 299.992188 70.511719 C 299.992188 69.507812 299.484375 69.410156 299.335938 69.410156 C 298.941406 69.410156 298.578125 69.804688 298.578125 70.132812 C 298.578125 70.332031 298.695312 70.445312 298.777344 70.511719 C 298.925781 70.660156 299.351562 71.101562 299.351562 71.953125 C 299.351562 72.511719 298.890625 74.054688 298.546875 74.828125 C 298.085938 75.828125 297.476562 76.484375 296.621094 76.484375 C 295.699219 76.484375 295.40625 75.796875 295.40625 75.039062 C 295.40625 74.566406 295.550781 73.988281 295.617188 73.710938 L 296.308594 70.953125 C 296.390625 70.625 296.539062 70.050781 296.539062 69.984375 C 296.539062 69.738281 296.34375 69.574219 296.09375 69.574219 C 295.617188 69.574219 295.503906 69.984375 295.40625 70.378906 C 295.238281 71.019531 294.550781 73.792969 294.484375 74.15625 C 294.417969 74.433594 294.417969 74.613281 294.417969 74.976562 C 294.417969 75.367188 293.890625 75.992188 293.875 76.023438 C 293.695312 76.207031 293.429688 76.484375 292.921875 76.484375 C 291.621094 76.484375 291.621094 75.253906 291.621094 74.976562 C 291.621094 74.449219 291.734375 73.726562 292.476562 71.773438 C 292.675781 71.265625 292.757812 71.050781 292.757812 70.722656 C 292.757812 70.035156 292.261719 69.410156 291.457031 69.410156 C 289.941406 69.410156 289.335938 71.789062 289.335938 71.921875 C 289.335938 71.988281 289.402344 72.070312 289.515625 72.070312 C 289.664062 72.070312 289.679688 72.003906 289.746094 71.773438 C 290.15625 70.332031 290.796875 69.738281 291.40625 69.738281 C 291.570312 69.738281 291.835938 69.753906 291.835938 70.28125 C 291.835938 70.363281 291.835938 70.707031 291.554688 71.429688 C 290.78125 73.480469 290.617188 74.15625 290.617188 74.777344 C 290.617188 76.5 292.03125 76.8125 292.871094 76.8125 C 293.152344 76.8125 293.890625 76.8125 294.550781 75.648438 Z M 294.550781 75.648438 " fill-opacity="1" fill-rule="nonzero"/><path fill="#000000" d="M 306.164062 75.421875 C 306.164062 74.589844 306.148438 73.167969 305.574219 72.070312 C 305.066406 71.113281 304.257812 70.773438 303.542969 70.773438 C 302.886719 70.773438 302.050781 71.074219 301.527344 72.058594 C 300.980469 73.085938 300.925781 74.355469 300.925781 75.421875 C 300.925781 76.203125 300.9375 77.394531 301.363281 78.433594 C 301.953125 79.84375 303.007812 80.035156 303.542969 80.035156 C 304.175781 80.035156 305.136719 79.773438 305.695312 78.476562 C 306.109375 77.53125 306.164062 76.421875 306.164062 75.421875 Z M 303.542969 79.816406 C 302.667969 79.816406 302.144531 79.0625 301.953125 78.023438 C 301.804688 77.214844 301.804688 76.039062 301.804688 75.273438 C 301.804688 74.21875 301.804688 73.34375 301.980469 72.507812 C 302.242188 71.347656 303.007812 70.992188 303.542969 70.992188 C 304.105469 70.992188 304.832031 71.359375 305.09375 72.480469 C 305.273438 73.261719 305.285156 74.179688 305.285156 75.273438 C 305.285156 76.164062 305.285156 77.257812 305.121094 78.0625 C 304.832031 79.554688 304.023438 79.816406 303.542969 79.816406 Z M 303.542969 79.816406 " fill-opacity="1" fill-rule="nonzero"/><path fill="#000000" d="M 294.324219 132.410156 C 294.6875 133.394531 295.707031 133.574219 296.332031 133.574219 C 297.582031 133.574219 298.320312 132.492188 298.78125 131.359375 C 299.160156 130.40625 299.769531 128.242188 299.769531 127.273438 C 299.769531 126.273438 299.257812 126.171875 299.109375 126.171875 C 298.714844 126.171875 298.355469 126.566406 298.355469 126.894531 C 298.355469 127.09375 298.46875 127.207031 298.550781 127.273438 C 298.699219 127.421875 299.125 127.863281 299.125 128.71875 C 299.125 129.273438 298.667969 130.816406 298.320312 131.589844 C 297.859375 132.589844 297.25 133.246094 296.394531 133.246094 C 295.476562 133.246094 295.179688 132.558594 295.179688 131.804688 C 295.179688 131.328125 295.328125 130.753906 295.394531 130.472656 L 296.082031 127.714844 C 296.164062 127.386719 296.3125 126.8125 296.3125 126.746094 C 296.3125 126.5 296.117188 126.335938 295.871094 126.335938 C 295.394531 126.335938 295.277344 126.746094 295.179688 127.140625 C 295.015625 127.78125 294.324219 130.554688 294.257812 130.917969 C 294.191406 131.195312 294.191406 131.375 294.191406 131.738281 C 294.191406 132.132812 293.664062 132.753906 293.648438 132.789062 C 293.46875 132.96875 293.207031 133.246094 292.695312 133.246094 C 291.394531 133.246094 291.394531 132.015625 291.394531 131.738281 C 291.394531 131.210938 291.511719 130.488281 292.25 128.535156 C 292.449219 128.027344 292.53125 127.816406 292.53125 127.488281 C 292.53125 126.796875 292.039062 126.171875 291.230469 126.171875 C 289.71875 126.171875 289.109375 128.554688 289.109375 128.683594 C 289.109375 128.75 289.175781 128.832031 289.289062 128.832031 C 289.4375 128.832031 289.453125 128.765625 289.519531 128.535156 C 289.933594 127.09375 290.574219 126.5 291.183594 126.5 C 291.347656 126.5 291.609375 126.519531 291.609375 127.042969 C 291.609375 127.125 291.609375 127.46875 291.328125 128.191406 C 290.558594 130.242188 290.390625 130.917969 290.390625 131.539062 C 290.390625 133.261719 291.808594 133.574219 292.644531 133.574219 C 292.925781 133.574219 293.664062 133.574219 294.324219 132.410156 Z M 294.324219 132.410156 " fill-opacity="1" fill-rule="nonzero"/><path fill="#000000" d="M 305.898438 134.457031 L 305.648438 134.457031 C 305.511719 135.429688 305.402344 135.59375 305.347656 135.675781 C 305.28125 135.785156 304.292969 135.785156 304.101562 135.785156 L 301.46875 135.785156 C 301.960938 135.25 302.921875 134.277344 304.085938 133.15625 C 304.921875 132.363281 305.898438 131.433594 305.898438 130.078125 C 305.898438 128.464844 304.609375 127.535156 303.167969 127.535156 C 301.660156 127.535156 300.742188 128.859375 300.742188 130.09375 C 300.742188 130.625 301.140625 130.695312 301.304688 130.695312 C 301.441406 130.695312 301.851562 130.613281 301.851562 130.132812 C 301.851562 129.710938 301.496094 129.585938 301.304688 129.585938 C 301.222656 129.585938 301.140625 129.601562 301.082031 129.628906 C 301.34375 128.464844 302.140625 127.890625 302.976562 127.890625 C 304.167969 127.890625 304.949219 128.832031 304.949219 130.078125 C 304.949219 131.269531 304.25 132.296875 303.46875 133.183594 L 300.742188 136.261719 L 300.742188 136.578125 L 305.566406 136.578125 Z M 305.898438 134.457031 " fill-opacity="1" fill-rule="nonzero"/><path fill="#000000" d="M 294.324219 98.890625 C 294.6875 99.875 295.707031 100.054688 296.332031 100.054688 C 297.582031 100.054688 298.320312 98.972656 298.78125 97.839844 C 299.160156 96.886719 299.769531 94.71875 299.769531 93.75 C 299.769531 92.75 299.257812 92.652344 299.109375 92.652344 C 298.714844 92.652344 298.355469 93.046875 298.355469 93.375 C 298.355469 93.570312 298.46875 93.6875 298.550781 93.75 C 298.699219 93.898438 299.125 94.34375 299.125 95.195312 C 299.125 95.753906 298.667969 97.296875 298.320312 98.066406 C 297.859375 99.070312 297.25 99.726562 296.394531 99.726562 C 295.476562 99.726562 295.179688 99.035156 295.179688 98.28125 C 295.179688 97.804688 295.328125 97.230469 295.394531 96.953125 L 296.082031 94.195312 C 296.164062 93.867188 296.3125 93.292969 296.3125 93.226562 C 296.3125 92.980469 296.117188 92.816406 295.871094 92.816406 C 295.394531 92.816406 295.277344 93.226562 295.179688 93.621094 C 295.015625 94.261719 294.324219 97.035156 294.257812 97.394531 C 294.191406 97.675781 294.191406 97.855469 294.191406 98.214844 C 294.191406 98.609375 293.664062 99.234375 293.648438 99.265625 C 293.46875 99.445312 293.207031 99.726562 292.695312 99.726562 C 291.394531 99.726562 291.394531 98.496094 291.394531 98.214844 C 291.394531 97.691406 291.511719 96.96875 292.25 95.015625 C 292.449219 94.507812 292.53125 94.292969 292.53125 93.964844 C 292.53125 93.277344 292.039062 92.652344 291.230469 92.652344 C 289.71875 92.652344 289.109375 95.03125 289.109375 95.164062 C 289.109375 95.230469 289.175781 95.3125 289.289062 95.3125 C 289.4375 95.3125 289.453125 95.246094 289.519531 95.015625 C 289.933594 93.570312 290.574219 92.980469 291.183594 92.980469 C 291.347656 92.980469 291.609375 92.996094 291.609375 93.523438 C 291.609375 93.605469 291.609375 93.949219 291.328125 94.671875 C 290.558594 96.722656 290.390625 97.394531 290.390625 98.019531 C 290.390625 99.742188 291.808594 100.054688 292.644531 100.054688 C 292.925781 100.054688 293.664062 100.054688 294.324219 98.890625 Z M 294.324219 98.890625 " fill-opacity="1" fill-rule="nonzero"/><path fill="#000000" d="M 303.828125 94.3125 C 303.828125 94.027344 303.8125 94.011719 303.621094 94.011719 C 303.085938 94.65625 302.277344 94.859375 301.507812 94.886719 C 301.46875 94.886719 301.398438 94.886719 301.386719 94.914062 C 301.371094 94.941406 301.371094 94.96875 301.371094 95.257812 C 301.796875 95.257812 302.511719 95.175781 303.058594 94.847656 L 303.058594 102.058594 C 303.058594 102.535156 303.03125 102.699219 301.851562 102.699219 L 301.441406 102.699219 L 301.441406 103.054688 C 302.097656 103.042969 302.785156 103.027344 303.441406 103.027344 C 304.101562 103.027344 304.785156 103.042969 305.445312 103.054688 L 305.445312 102.699219 L 305.03125 102.699219 C 303.855469 102.699219 303.828125 102.550781 303.828125 102.058594 Z M 303.828125 94.3125 " fill-opacity="1" fill-rule="nonzero"/><g clip-path="url(#2b362cb803)"><path fill="#000000" d="M 293.96875 186.984375 C 294.328125 187.96875 295.347656 188.148438 295.972656 188.148438 C 297.222656 188.148438 297.964844 187.066406 298.425781 185.933594 C 298.804688 184.980469 299.414062 182.8125 299.414062 181.847656 C 299.414062 180.84375 298.902344 180.746094 298.753906 180.746094 C 298.359375 180.746094 297.996094 181.140625 297.996094 181.46875 C 297.996094 181.664062 298.113281 181.78125 298.195312 181.847656 C 298.34375 181.992188 298.769531 182.4375 298.769531 183.289062 C 298.769531 183.847656 298.308594 185.390625 297.964844 186.164062 C 297.503906 187.164062 296.894531 187.820312 296.039062 187.820312 C 295.117188 187.820312 294.824219 187.128906 294.824219 186.375 C 294.824219 185.898438 294.972656 185.324219 295.035156 185.046875 L 295.726562 182.289062 C 295.808594 181.960938 295.957031 181.386719 295.957031 181.320312 C 295.957031 181.074219 295.761719 180.910156 295.515625 180.910156 C 295.035156 180.910156 294.921875 181.320312 294.824219 181.714844 C 294.660156 182.355469 293.96875 185.128906 293.902344 185.488281 C 293.835938 185.769531 293.835938 185.949219 293.835938 186.308594 C 293.835938 186.703125 293.308594 187.328125 293.292969 187.359375 C 293.113281 187.542969 292.847656 187.820312 292.339844 187.820312 C 291.039062 187.820312 291.039062 186.589844 291.039062 186.308594 C 291.039062 185.785156 291.15625 185.0625 291.894531 183.109375 C 292.09375 182.601562 292.175781 182.386719 292.175781 182.058594 C 292.175781 181.371094 291.679688 180.746094 290.875 180.746094 C 289.363281 180.746094 288.753906 183.125 288.753906 183.257812 C 288.753906 183.324219 288.820312 183.40625 288.933594 183.40625 C 289.082031 183.40625 289.097656 183.339844 289.164062 183.109375 C 289.574219 181.664062 290.21875 181.074219 290.824219 181.074219 C 290.992188 181.074219 291.253906 181.089844 291.253906 181.617188 C 291.253906 181.699219 291.253906 182.042969 290.972656 182.765625 C 290.199219 184.816406 290.035156 185.488281 290.035156 186.113281 C 290.035156 187.835938 291.449219 188.148438 292.289062 188.148438 C 292.570312 188.148438 293.308594 188.148438 293.96875 186.984375 Z M 293.96875 186.984375 " fill-opacity="1" fill-rule="nonzero"/></g><g clip-path="url(#499bfc9646)"><path fill="#000000" d="M 302.648438 186.4375 C 302.675781 186.355469 303.019531 185.671875 303.523438 185.234375 C 303.882812 184.90625 304.347656 184.6875 304.882812 184.6875 C 305.429688 184.6875 305.621094 185.097656 305.621094 185.644531 C 305.621094 186.421875 305.0625 187.984375 304.785156 188.722656 C 304.664062 189.050781 304.59375 189.226562 304.59375 189.476562 C 304.59375 190.089844 305.019531 190.582031 305.679688 190.582031 C 306.953125 190.582031 307.433594 188.570312 307.433594 188.488281 C 307.433594 188.421875 307.378906 188.367188 307.296875 188.367188 C 307.171875 188.367188 307.160156 188.40625 307.089844 188.640625 C 306.773438 189.761719 306.253906 190.308594 305.71875 190.308594 C 305.582031 190.308594 305.363281 190.296875 305.363281 189.859375 C 305.363281 189.515625 305.511719 189.105469 305.59375 188.914062 C 305.871094 188.160156 306.445312 186.628906 306.445312 185.847656 C 306.445312 185.027344 305.964844 184.414062 304.921875 184.414062 C 303.703125 184.414062 303.058594 185.273438 302.8125 185.617188 C 302.769531 184.835938 302.207031 184.414062 301.605469 184.414062 C 301.167969 184.414062 300.863281 184.671875 300.632812 185.136719 C 300.386719 185.628906 300.191406 186.449219 300.191406 186.503906 C 300.191406 186.5625 300.246094 186.628906 300.34375 186.628906 C 300.453125 186.628906 300.46875 186.617188 300.550781 186.300781 C 300.769531 185.464844 301.015625 184.6875 301.5625 184.6875 C 301.878906 184.6875 301.988281 184.90625 301.988281 185.316406 C 301.988281 185.617188 301.851562 186.148438 301.757812 186.574219 L 301.371094 188.050781 C 301.316406 188.3125 301.167969 188.925781 301.097656 189.171875 C 301.003906 189.53125 300.851562 190.171875 300.851562 190.242188 C 300.851562 190.433594 301.003906 190.582031 301.207031 190.582031 C 301.371094 190.582031 301.5625 190.5 301.675781 190.296875 C 301.703125 190.226562 301.824219 189.75 301.894531 189.476562 L 302.195312 188.242188 Z M 302.648438 186.4375 " fill-opacity="1" fill-rule="nonzero"/></g><g clip-path="url(#42eb83e2d1)"><path fill="#000000" d="M 298.234375 150.832031 C 298.234375 150.042969 297.578125 149.539062 296.894531 149.539062 C 296.238281 149.539062 295.550781 150.042969 295.550781 150.832031 C 295.550781 151.621094 296.207031 152.125 296.894531 152.125 C 297.546875 152.125 298.234375 151.621094 298.234375 150.832031 Z M 298.234375 150.832031 " fill-opacity="1" fill-rule="nonzero"/></g><g clip-path="url(#46afdacb19)"><path fill="#000000" d="M 298.234375 155.902344 C 298.234375 155.113281 297.578125 154.609375 296.894531 154.609375 C 296.238281 154.609375 295.550781 155.113281 295.550781 155.902344 C 295.550781 156.691406 296.207031 157.195312 296.894531 157.195312 C 297.546875 157.195312 298.234375 156.691406 298.234375 155.902344 Z M 298.234375 155.902344 " fill-opacity="1" fill-rule="nonzero"/></g><g clip-path="url(#cc917fb567)"><path fill="#000000" d="M 298.234375 160.972656 C 298.234375 160.183594 297.578125 159.679688 296.894531 159.679688 C 296.238281 159.679688 295.550781 160.183594 295.550781 160.972656 C 295.550781 161.761719 296.207031 162.265625 296.894531 162.265625 C 297.546875 162.265625 298.234375 161.761719 298.234375 160.972656 Z M 298.234375 160.972656 " fill-opacity="1" fill-rule="nonzero"/></g><g clip-path="url(#86dd96cfdd)"><path fill="#000000" d="M 787.359375 131.933594 C 788.199219 130.976562 788.882812 130.371094 789.859375 129.492188 C 791.03125 128.476562 791.539062 127.988281 791.8125 127.695312 C 793.179688 126.347656 793.863281 125.214844 793.863281 125.058594 C 793.863281 124.902344 793.707031 124.902344 793.667969 124.902344 C 793.53125 124.902344 793.492188 124.980469 793.394531 125.117188 C 792.90625 125.957031 792.4375 126.367188 791.929688 126.367188 C 791.519531 126.367188 791.304688 126.191406 790.933594 125.722656 C 790.523438 125.234375 790.191406 124.902344 789.625 124.902344 C 788.199219 124.902344 787.339844 126.679688 787.339844 127.089844 C 787.339844 127.148438 787.359375 127.265625 787.535156 127.265625 C 787.691406 127.265625 787.710938 127.1875 787.769531 127.050781 C 788.101562 126.269531 789.039062 126.132812 789.410156 126.132812 C 789.820312 126.132812 790.210938 126.269531 790.621094 126.445312 C 791.363281 126.757812 791.675781 126.757812 791.871094 126.757812 C 792.007812 126.757812 792.085938 126.757812 792.183594 126.738281 C 791.539062 127.5 790.484375 128.4375 789.605469 129.238281 L 787.632812 131.054688 C 786.441406 132.265625 785.71875 133.417969 785.71875 133.554688 C 785.71875 133.671875 785.816406 133.710938 785.933594 133.710938 C 786.050781 133.710938 786.070312 133.691406 786.207031 133.457031 C 786.519531 132.96875 787.144531 132.246094 787.867188 132.246094 C 788.277344 132.246094 788.472656 132.382812 788.863281 132.871094 C 789.234375 133.300781 789.566406 133.710938 790.191406 133.710938 C 792.105469 133.710938 793.199219 131.230469 793.199219 130.78125 C 793.199219 130.703125 793.179688 130.585938 792.984375 130.585938 C 792.828125 130.585938 792.808594 130.664062 792.75 130.859375 C 792.320312 132.011719 791.167969 132.480469 790.40625 132.480469 C 789.996094 132.480469 789.605469 132.34375 789.195312 132.167969 C 788.414062 131.855469 788.199219 131.855469 787.945312 131.855469 C 787.75 131.855469 787.535156 131.855469 787.359375 131.933594 Z M 787.359375 131.933594 " fill-opacity="1" fill-rule="nonzero"/></g><path stroke-linecap="butt" transform="matrix(0.74857, 0.002625, -0.002625, 0.74857, 639.659001, 128.382665)" fill="none" stroke-linejoin="miter" d="M -0.00191706 0.501159 L 194.003522 0.49922 " stroke="#000000" stroke-width="1" stroke-opacity="1" stroke-miterlimit="4"/><path fill="#000000" d="M 451.699219 130.058594 C 452.535156 129.109375 453.214844 128.507812 454.1875 127.636719 C 455.351562 126.628906 455.855469 126.144531 456.128906 125.851562 C 457.488281 124.511719 458.167969 123.386719 458.167969 123.234375 C 458.167969 123.078125 458.015625 123.078125 457.976562 123.078125 C 457.839844 123.078125 457.800781 123.15625 457.703125 123.292969 C 457.21875 124.125 456.75 124.53125 456.246094 124.53125 C 455.835938 124.53125 455.625 124.359375 455.253906 123.894531 C 454.847656 123.40625 454.515625 123.078125 453.953125 123.078125 C 452.535156 123.078125 451.679688 124.84375 451.679688 125.25 C 451.679688 125.308594 451.699219 125.425781 451.871094 125.425781 C 452.027344 125.425781 452.046875 125.347656 452.105469 125.210938 C 452.4375 124.4375 453.371094 124.300781 453.738281 124.300781 C 454.148438 124.300781 454.535156 124.4375 454.945312 124.609375 C 455.683594 124.921875 455.992188 124.921875 456.1875 124.921875 C 456.324219 124.921875 456.402344 124.921875 456.5 124.902344 C 455.855469 125.65625 454.808594 126.589844 453.933594 127.382812 L 451.96875 129.1875 C 450.785156 130.390625 450.066406 131.535156 450.066406 131.671875 C 450.066406 131.785156 450.164062 131.824219 450.277344 131.824219 C 450.394531 131.824219 450.414062 131.804688 450.550781 131.574219 C 450.863281 131.089844 451.484375 130.371094 452.203125 130.371094 C 452.613281 130.371094 452.804688 130.507812 453.195312 130.992188 C 453.5625 131.417969 453.894531 131.824219 454.515625 131.824219 C 456.421875 131.824219 457.507812 129.363281 457.507812 128.914062 C 457.507812 128.839844 457.488281 128.722656 457.296875 128.722656 C 457.140625 128.722656 457.121094 128.800781 457.0625 128.992188 C 456.632812 130.136719 455.488281 130.601562 454.730469 130.601562 C 454.320312 130.601562 453.933594 130.46875 453.523438 130.292969 C 452.746094 129.984375 452.535156 129.984375 452.28125 129.984375 C 452.085938 129.984375 451.871094 129.984375 451.699219 130.058594 Z M 451.699219 130.058594 " fill-opacity="1" fill-rule="nonzero"/><path fill="#000000" d="M 477.453125 125.347656 C 477.726562 125.347656 478.074219 125.347656 478.074219 125 C 478.074219 124.628906 477.746094 124.628906 477.453125 124.628906 L 466.007812 124.628906 C 465.734375 124.628906 465.382812 124.628906 465.382812 124.980469 C 465.382812 125.347656 465.714844 125.347656 466.007812 125.347656 Z M 477.453125 128.953125 C 477.726562 128.953125 478.074219 128.953125 478.074219 128.605469 C 478.074219 128.238281 477.746094 128.238281 477.453125 128.238281 L 466.007812 128.238281 C 465.734375 128.238281 465.382812 128.238281 465.382812 128.585938 C 465.382812 128.953125 465.714844 128.953125 466.007812 128.953125 Z M 477.453125 128.953125 " fill-opacity="1" fill-rule="nonzero"/><g clip-path="url(#14a8614bc8)"><path fill="#000000" d="M 496.984375 105.269531 C 497.023438 105.074219 497.152344 104.582031 497.191406 104.386719 C 497.371094 103.691406 497.371094 103.675781 497.671875 103.25 C 498.097656 102.617188 498.707031 102.046875 499.574219 102.046875 C 500.042969 102.046875 500.3125 102.320312 500.3125 102.925781 C 500.3125 103.640625 499.769531 105.113281 499.523438 105.746094 C 499.355469 106.171875 499.355469 106.25 499.355469 106.417969 C 499.355469 107.15625 499.964844 107.515625 500.519531 107.515625 C 501.789062 107.515625 502.320312 105.707031 502.320312 105.539062 C 502.320312 105.410156 502.21875 105.371094 502.128906 105.371094 C 501.972656 105.371094 501.945312 105.460938 501.90625 105.589844 C 501.597656 106.652344 501.050781 107.15625 500.558594 107.15625 C 500.351562 107.15625 500.25 107.027344 500.25 106.730469 C 500.25 106.429688 500.351562 106.148438 500.480469 105.824219 C 500.675781 105.332031 501.246094 103.84375 501.246094 103.121094 C 501.246094 102.152344 500.574219 101.6875 499.640625 101.6875 C 498.589844 101.6875 497.917969 102.320312 497.539062 102.8125 C 497.449219 102.101562 496.878906 101.6875 496.21875 101.6875 C 495.753906 101.6875 495.429688 101.984375 495.222656 102.382812 C 494.910156 102.992188 494.78125 103.640625 494.78125 103.664062 C 494.78125 103.78125 494.871094 103.832031 494.976562 103.832031 C 495.144531 103.832031 495.15625 103.78125 495.246094 103.445312 C 495.402344 102.8125 495.636719 102.046875 496.179688 102.046875 C 496.515625 102.046875 496.59375 102.371094 496.59375 102.65625 C 496.59375 102.890625 496.53125 103.132812 496.425781 103.5625 C 496.402344 103.664062 496.207031 104.425781 496.15625 104.609375 L 495.675781 106.546875 C 495.625 106.742188 495.546875 107.066406 495.546875 107.117188 C 495.546875 107.414062 495.792969 107.515625 495.960938 107.515625 C 496.191406 107.515625 496.386719 107.363281 496.476562 107.207031 C 496.515625 107.128906 496.621094 106.691406 496.6875 106.417969 Z M 496.984375 105.269531 " fill-opacity="1" fill-rule="nonzero"/></g><path fill="#000000" d="M 509.136719 140.359375 L 511.488281 134.152344 L 511.003906 134.152344 C 510.246094 136.171875 508.183594 137.488281 505.949219 138.070312 C 505.542969 138.167969 503.636719 138.671875 499.90625 138.671875 L 488.1875 138.671875 L 498.078125 127.09375 C 498.214844 126.9375 498.253906 126.878906 498.253906 126.785156 C 498.253906 126.746094 498.253906 126.6875 498.117188 126.492188 L 489.0625 114.136719 L 499.710938 114.136719 C 502.316406 114.136719 504.085938 114.410156 504.257812 114.449219 C 505.308594 114.605469 507 114.933594 508.535156 115.902344 C 509.019531 116.214844 510.34375 117.085938 511.003906 118.65625 L 511.488281 118.65625 L 509.136719 113.207031 L 486.164062 113.207031 C 485.71875 113.207031 485.699219 113.226562 485.640625 113.34375 C 485.621094 113.402344 485.621094 113.769531 485.621094 113.984375 L 495.902344 128.023438 L 485.835938 139.796875 C 485.640625 140.03125 485.640625 140.125 485.640625 140.144531 C 485.640625 140.359375 485.816406 140.359375 486.164062 140.359375 Z M 509.136719 140.359375 " fill-opacity="1" fill-rule="nonzero"/><g clip-path="url(#c0ae48f7ca)"><path fill="#000000" d="M 491.292969 146.011719 C 491.292969 145.726562 491.085938 145.519531 490.789062 145.519531 C 490.449219 145.519531 490.074219 145.828125 490.074219 146.21875 C 490.074219 146.5 490.28125 146.707031 490.578125 146.707031 C 490.917969 146.707031 491.292969 146.398438 491.292969 146.011719 Z M 489.402344 150.753906 L 488.703125 152.539062 C 488.636719 152.734375 488.570312 152.890625 488.570312 153.109375 C 488.570312 153.742188 489.0625 154.207031 489.75 154.207031 C 491.007812 154.207031 491.539062 152.398438 491.539062 152.230469 C 491.539062 152.101562 491.433594 152.0625 491.34375 152.0625 C 491.1875 152.0625 491.164062 152.152344 491.125 152.28125 C 490.824219 153.316406 490.296875 153.84375 489.777344 153.84375 C 489.621094 153.84375 489.464844 153.78125 489.464844 153.433594 C 489.464844 153.121094 489.554688 152.890625 489.726562 152.488281 C 489.855469 152.140625 489.984375 151.789062 490.125 151.441406 L 490.527344 150.394531 C 490.644531 150.097656 490.800781 149.695312 490.800781 149.476562 C 490.800781 148.828125 490.28125 148.375 489.621094 148.375 C 488.363281 148.375 487.820312 150.1875 487.820312 150.355469 C 487.820312 150.472656 487.910156 150.523438 488.015625 150.523438 C 488.183594 150.523438 488.195312 150.445312 488.234375 150.316406 C 488.597656 149.085938 489.195312 148.738281 489.582031 148.738281 C 489.765625 148.738281 489.894531 148.804688 489.894531 149.164062 C 489.894531 149.292969 489.878906 149.476562 489.75 149.863281 Z M 489.402344 150.753906 " fill-opacity="1" fill-rule="nonzero"/></g><path fill="#000000" d="M 501.589844 149.773438 C 501.785156 149.773438 502.042969 149.773438 502.042969 149.476562 C 502.042969 149.179688 501.730469 149.179688 501.539062 149.179688 L 493.386719 149.179688 C 493.195312 149.179688 492.882812 149.179688 492.882812 149.476562 C 492.882812 149.773438 493.140625 149.773438 493.335938 149.773438 Z M 501.539062 152.515625 C 501.730469 152.515625 502.042969 152.515625 502.042969 152.214844 C 502.042969 151.917969 501.785156 151.917969 501.589844 151.917969 L 493.335938 151.917969 C 493.140625 151.917969 492.882812 151.917969 492.882812 152.214844 C 492.882812 152.515625 493.195312 152.515625 493.386719 152.515625 Z M 501.539062 152.515625 " fill-opacity="1" fill-rule="nonzero"/><g clip-path="url(#0972e5784b)"><path fill="#000000" d="M 509.160156 149.953125 C 509.160156 148.570312 509.015625 147.730469 508.589844 146.902344 C 508.019531 145.765625 506.96875 145.480469 506.257812 145.480469 C 504.625 145.480469 504.03125 146.695312 503.847656 147.058594 C 503.382812 148 503.355469 149.28125 503.355469 149.953125 C 503.355469 150.808594 503.394531 152.113281 504.015625 153.148438 C 504.613281 154.105469 505.570312 154.351562 506.257812 154.351562 C 506.878906 154.351562 507.992188 154.15625 508.640625 152.875 C 509.121094 151.945312 509.160156 150.792969 509.160156 149.953125 Z M 506.257812 153.988281 C 505.816406 153.988281 504.921875 153.78125 504.652344 152.421875 C 504.507812 151.6875 504.507812 150.472656 504.507812 149.796875 C 504.507812 148.90625 504.507812 148 504.652344 147.289062 C 504.921875 145.972656 505.933594 145.84375 506.257812 145.84375 C 506.699219 145.84375 507.59375 146.0625 507.851562 147.238281 C 508.007812 147.949219 508.007812 148.917969 508.007812 149.796875 C 508.007812 150.5625 508.007812 151.726562 507.851562 152.449219 C 507.578125 153.808594 506.683594 153.988281 506.257812 153.988281 Z M 506.257812 153.988281 " fill-opacity="1" fill-rule="nonzero"/></g><path fill="#000000" d="M 522.53125 130.449219 C 522.957031 131.613281 524.160156 131.824219 524.902344 131.824219 C 526.378906 131.824219 527.253906 130.546875 527.796875 129.207031 C 528.242188 128.082031 528.960938 125.523438 528.960938 124.378906 C 528.960938 123.195312 528.359375 123.078125 528.183594 123.078125 C 527.71875 123.078125 527.289062 123.542969 527.289062 123.929688 C 527.289062 124.164062 527.425781 124.300781 527.523438 124.378906 C 527.699219 124.550781 528.203125 125.074219 528.203125 126.085938 C 528.203125 126.742188 527.660156 128.566406 527.253906 129.476562 C 526.707031 130.660156 525.988281 131.4375 524.976562 131.4375 C 523.890625 131.4375 523.539062 130.621094 523.539062 129.730469 C 523.539062 129.167969 523.714844 128.488281 523.792969 128.160156 L 524.609375 124.902344 C 524.707031 124.511719 524.882812 123.835938 524.882812 123.757812 C 524.882812 123.464844 524.648438 123.273438 524.355469 123.273438 C 523.792969 123.273438 523.65625 123.757812 523.539062 124.222656 C 523.34375 124.980469 522.53125 128.257812 522.453125 128.683594 C 522.375 129.011719 522.375 129.226562 522.375 129.652344 C 522.375 130.117188 521.753906 130.855469 521.734375 130.894531 C 521.519531 131.109375 521.207031 131.4375 520.605469 131.4375 C 519.070312 131.4375 519.070312 129.984375 519.070312 129.652344 C 519.070312 129.03125 519.207031 128.179688 520.082031 125.871094 C 520.3125 125.269531 520.410156 125.019531 520.410156 124.628906 C 520.410156 123.816406 519.828125 123.078125 518.875 123.078125 C 517.085938 123.078125 516.367188 125.890625 516.367188 126.046875 C 516.367188 126.125 516.445312 126.21875 516.582031 126.21875 C 516.757812 126.21875 516.777344 126.144531 516.855469 125.871094 C 517.339844 124.164062 518.097656 123.464844 518.816406 123.464844 C 519.011719 123.464844 519.324219 123.484375 519.324219 124.105469 C 519.324219 124.203125 519.324219 124.609375 518.992188 125.464844 C 518.078125 127.886719 517.882812 128.683594 517.882812 129.421875 C 517.882812 131.457031 519.554688 131.824219 520.546875 131.824219 C 520.878906 131.824219 521.753906 131.824219 522.53125 130.449219 Z M 522.53125 130.449219 " fill-opacity="1" fill-rule="nonzero"/><path fill="#000000" d="M 533.308594 126.472656 C 533.308594 126.1875 533.101562 125.980469 532.804688 125.980469 C 532.464844 125.980469 532.089844 126.292969 532.089844 126.679688 C 532.089844 126.964844 532.296875 127.171875 532.59375 127.171875 C 532.933594 127.171875 533.308594 126.863281 533.308594 126.472656 Z M 531.417969 131.21875 L 530.71875 133.003906 C 530.652344 133.195312 530.585938 133.351562 530.585938 133.570312 C 530.585938 134.207031 531.078125 134.671875 531.765625 134.671875 C 533.023438 134.671875 533.554688 132.859375 533.554688 132.691406 C 533.554688 132.5625 533.449219 132.523438 533.359375 132.523438 C 533.203125 132.523438 533.179688 132.613281 533.140625 132.746094 C 532.839844 133.777344 532.308594 134.308594 531.792969 134.308594 C 531.636719 134.308594 531.480469 134.242188 531.480469 133.894531 C 531.480469 133.585938 531.570312 133.351562 531.742188 132.949219 C 531.871094 132.601562 532 132.253906 532.140625 131.902344 L 532.542969 130.855469 C 532.660156 130.558594 532.816406 130.160156 532.816406 129.9375 C 532.816406 129.292969 532.296875 128.839844 531.636719 128.839844 C 530.378906 128.839844 529.835938 130.648438 529.835938 130.816406 C 529.835938 130.933594 529.925781 130.984375 530.03125 130.984375 C 530.199219 130.984375 530.210938 130.910156 530.25 130.777344 C 530.613281 129.550781 531.210938 129.203125 531.597656 129.203125 C 531.777344 129.203125 531.910156 129.265625 531.910156 129.628906 C 531.910156 129.757812 531.894531 129.9375 531.765625 130.328125 Z M 531.417969 131.21875 " fill-opacity="1" fill-rule="nonzero"/><path fill="#000000" d="M 544.15625 123.71875 C 543.535156 123.835938 543.300781 124.300781 543.300781 124.667969 C 543.300781 125.132812 543.667969 125.289062 543.941406 125.289062 C 544.523438 125.289062 544.933594 124.785156 544.933594 124.261719 C 544.933594 123.445312 544 123.078125 543.183594 123.078125 C 541.996094 123.078125 541.335938 124.242188 541.164062 124.609375 C 540.714844 123.15625 539.511719 123.078125 539.160156 123.078125 C 537.179688 123.078125 536.128906 125.617188 536.128906 126.046875 C 536.128906 126.125 536.207031 126.21875 536.34375 126.21875 C 536.496094 126.21875 536.535156 126.105469 536.574219 126.027344 C 537.238281 123.875 538.539062 123.464844 539.101562 123.464844 C 539.976562 123.464844 540.152344 124.28125 540.152344 124.746094 C 540.152344 125.171875 540.035156 125.617188 539.800781 126.550781 L 539.140625 129.207031 C 538.847656 130.371094 538.285156 131.4375 537.257812 131.4375 C 537.160156 131.4375 536.671875 131.4375 536.265625 131.183594 C 536.964844 131.050781 537.121094 130.46875 537.121094 130.234375 C 537.121094 129.847656 536.828125 129.613281 536.460938 129.613281 C 535.992188 129.613281 535.488281 130.019531 535.488281 130.640625 C 535.488281 131.457031 536.402344 131.824219 537.238281 131.824219 C 538.167969 131.824219 538.832031 131.089844 539.238281 130.292969 C 539.550781 131.4375 540.519531 131.824219 541.238281 131.824219 C 543.222656 131.824219 544.273438 129.285156 544.273438 128.859375 C 544.273438 128.761719 544.195312 128.683594 544.078125 128.683594 C 543.902344 128.683594 543.882812 128.78125 543.824219 128.933594 C 543.300781 130.640625 542.171875 131.4375 541.296875 131.4375 C 540.617188 131.4375 540.25 130.933594 540.25 130.136719 C 540.25 129.710938 540.328125 129.402344 540.636719 128.121094 L 541.316406 125.484375 C 541.609375 124.320312 542.269531 123.464844 543.164062 123.464844 C 543.203125 123.464844 543.746094 123.464844 544.15625 123.71875 Z M 544.15625 123.71875 " fill-opacity="1" fill-rule="nonzero"/><path fill="#000000" d="M 549.617188 126.472656 C 549.617188 126.1875 549.410156 125.980469 549.113281 125.980469 C 548.777344 125.980469 548.398438 126.292969 548.398438 126.679688 C 548.398438 126.964844 548.605469 127.171875 548.90625 127.171875 C 549.242188 127.171875 549.617188 126.863281 549.617188 126.472656 Z M 547.726562 131.21875 L 547.027344 133.003906 C 546.960938 133.195312 546.898438 133.351562 546.898438 133.570312 C 546.898438 134.207031 547.390625 134.671875 548.074219 134.671875 C 549.332031 134.671875 549.863281 132.859375 549.863281 132.691406 C 549.863281 132.5625 549.761719 132.523438 549.667969 132.523438 C 549.515625 132.523438 549.488281 132.613281 549.449219 132.746094 C 549.152344 133.777344 548.621094 134.308594 548.101562 134.308594 C 547.945312 134.308594 547.789062 134.242188 547.789062 133.894531 C 547.789062 133.585938 547.882812 133.351562 548.050781 132.949219 C 548.179688 132.601562 548.308594 132.253906 548.453125 131.902344 L 548.851562 130.855469 C 548.96875 130.558594 549.125 130.160156 549.125 129.9375 C 549.125 129.292969 548.605469 128.839844 547.945312 128.839844 C 546.691406 128.839844 546.144531 130.648438 546.144531 130.816406 C 546.144531 130.933594 546.234375 130.984375 546.339844 130.984375 C 546.507812 130.984375 546.519531 130.910156 546.558594 130.777344 C 546.921875 129.550781 547.519531 129.203125 547.90625 129.203125 C 548.089844 129.203125 548.21875 129.265625 548.21875 129.628906 C 548.21875 129.757812 548.207031 129.9375 548.074219 130.328125 Z M 547.726562 131.21875 " fill-opacity="1" fill-rule="nonzero"/><path fill="#000000" d="M 569.773438 125.347656 C 570.042969 125.347656 570.394531 125.347656 570.394531 125 C 570.394531 124.628906 570.0625 124.628906 569.773438 124.628906 L 558.324219 124.628906 C 558.050781 124.628906 557.703125 124.628906 557.703125 124.980469 C 557.703125 125.347656 558.03125 125.347656 558.324219 125.347656 Z M 569.773438 128.953125 C 570.042969 128.953125 570.394531 128.953125 570.394531 128.605469 C 570.394531 128.238281 570.0625 128.238281 569.773438 128.238281 L 558.324219 128.238281 C 558.050781 128.238281 557.703125 128.238281 557.703125 128.585938 C 557.703125 128.953125 558.03125 128.953125 558.324219 128.953125 Z M 569.773438 128.953125 " fill-opacity="1" fill-rule="nonzero"/><path fill="#000000" d="M 580.484375 123.273438 C 580.039062 123.273438 579.378906 123.273438 578.484375 124.222656 C 577.980469 124.785156 577.355469 125.8125 577.355469 125.929688 C 577.355469 126.046875 577.453125 126.085938 577.570312 126.085938 C 577.707031 126.085938 577.726562 126.046875 577.824219 125.890625 C 578.015625 125.582031 578.367188 125.054688 579.046875 124.648438 C 579.570312 124.320312 579.765625 124.320312 581.03125 124.320312 C 580.445312 125.074219 578.949219 127.015625 578.949219 129.652344 C 578.949219 130.835938 579.359375 131.824219 580.601562 131.824219 C 582.292969 131.824219 583.808594 130.410156 584.761719 128.546875 L 584.78125 128.566406 C 584.761719 128.742188 584.742188 129.03125 584.742188 129.265625 C 584.742188 130.660156 585.1875 131.824219 586.703125 131.824219 C 589.445312 131.824219 591.175781 127.753906 591.175781 125.773438 C 591.175781 125.289062 591.097656 124.785156 590.960938 124.320312 C 591.292969 124.320312 591.816406 124.320312 591.933594 124.28125 C 592.164062 124.203125 592.359375 123.96875 592.359375 123.699219 C 592.359375 123.273438 591.992188 123.273438 591.640625 123.273438 Z M 590.515625 124.320312 C 590.667969 124.765625 590.746094 125.386719 590.746094 125.773438 C 590.746094 127.90625 589.015625 130.777344 586.878906 130.777344 C 585.847656 130.777344 585.304688 130.117188 585.304688 128.566406 C 585.304688 127.867188 585.441406 127.054688 585.539062 126.667969 C 585.65625 126.179688 585.65625 126.144531 585.65625 126.125 C 585.65625 126.046875 585.578125 125.949219 585.441406 125.949219 C 585.285156 125.949219 585.246094 126.046875 585.207031 126.144531 C 584.21875 129.574219 582.175781 130.777344 580.777344 130.777344 C 579.609375 130.777344 579.476562 129.632812 579.476562 129.011719 C 579.476562 128.179688 579.746094 126.492188 581.554688 124.320312 Z M 590.515625 124.320312 " fill-opacity="1" fill-rule="nonzero"/><path fill="#000000" d="M 601.152344 126.78125 C 601.152344 126.21875 600.683594 125.753906 600.121094 125.753906 C 599.558594 125.753906 599.089844 126.21875 599.089844 126.78125 C 599.089844 127.34375 599.558594 127.808594 600.121094 127.808594 C 600.683594 127.808594 601.152344 127.34375 601.152344 126.78125 Z M 601.152344 126.78125 " fill-opacity="1" fill-rule="nonzero"/><path fill="#000000" d="M 616.367188 123.757812 L 614.542969 119.507812 C 614.792969 119.042969 615.375 118.964844 615.609375 118.949219 C 615.726562 118.949219 615.941406 118.929688 615.941406 118.597656 C 615.941406 118.386719 615.765625 118.386719 615.648438 118.386719 C 615.320312 118.386719 614.929688 118.421875 614.597656 118.421875 L 613.472656 118.421875 C 612.285156 118.421875 611.429688 118.386719 611.414062 118.386719 C 611.257812 118.386719 611.0625 118.386719 611.0625 118.753906 C 611.0625 118.949219 611.238281 118.949219 611.488281 118.949219 C 612.617188 118.949219 612.695312 119.140625 612.890625 119.605469 L 615.203125 125 L 610.984375 129.496094 C 610.285156 130.253906 609.449219 130.992188 608.011719 131.070312 C 607.777344 131.089844 607.621094 131.089844 607.621094 131.4375 C 607.621094 131.496094 607.640625 131.632812 607.855469 131.632812 C 608.128906 131.632812 608.417969 131.59375 608.691406 131.59375 L 609.605469 131.59375 C 610.226562 131.59375 610.90625 131.632812 611.507812 131.632812 C 611.644531 131.632812 611.878906 131.632812 611.878906 131.28125 C 611.878906 131.089844 611.742188 131.070312 611.625 131.070312 C 611.238281 131.03125 610.984375 130.816406 610.984375 130.507812 C 610.984375 130.175781 611.21875 129.945312 611.78125 129.363281 L 613.511719 127.480469 C 613.9375 127.035156 614.96875 125.910156 615.394531 125.484375 L 617.4375 130.253906 C 617.457031 130.292969 617.535156 130.488281 617.535156 130.507812 C 617.535156 130.679688 617.105469 131.03125 616.484375 131.070312 C 616.367188 131.070312 616.152344 131.089844 616.152344 131.4375 C 616.152344 131.632812 616.347656 131.632812 616.445312 131.632812 C 616.777344 131.632812 617.164062 131.59375 617.496094 131.59375 L 619.632812 131.59375 C 619.984375 131.59375 620.351562 131.632812 620.683594 131.632812 C 620.820312 131.632812 621.03125 131.632812 621.03125 131.261719 C 621.03125 131.070312 620.835938 131.070312 620.664062 131.070312 C 619.496094 131.050781 619.457031 130.953125 619.128906 130.234375 L 616.5625 124.222656 L 619.03125 121.585938 C 619.226562 121.390625 619.671875 120.90625 619.847656 120.710938 C 620.683594 119.839844 621.460938 119.042969 623.035156 118.949219 C 623.226562 118.929688 623.421875 118.929688 623.421875 118.597656 C 623.421875 118.386719 623.246094 118.386719 623.171875 118.386719 C 622.898438 118.386719 622.605469 118.421875 622.335938 118.421875 L 621.441406 118.421875 C 620.820312 118.421875 620.136719 118.386719 619.535156 118.386719 C 619.398438 118.386719 619.167969 118.386719 619.167969 118.734375 C 619.167969 118.929688 619.300781 118.949219 619.417969 118.949219 C 619.730469 118.984375 620.058594 119.140625 620.058594 119.507812 L 620.042969 119.546875 C 620.023438 119.683594 619.984375 119.878906 619.769531 120.109375 Z M 616.367188 123.757812 " fill-opacity="1" fill-rule="nonzero"/><path fill="#000000" d="M 627.96875 126.855469 L 627.96875 126.261719 L 626.660156 126.261719 L 626.660156 114.519531 L 627.96875 114.519531 L 627.96875 113.925781 L 626.0625 113.925781 L 626.0625 126.855469 Z M 627.96875 126.855469 " fill-opacity="1" fill-rule="nonzero"/><path fill="#000000" d="M 631.441406 115.039062 C 631.457031 115.011719 631.492188 114.84375 631.492188 114.832031 C 631.492188 114.765625 631.441406 114.652344 631.285156 114.652344 C 631.234375 114.652344 630.832031 114.6875 630.535156 114.714844 L 629.808594 114.765625 C 629.523438 114.792969 629.394531 114.804688 629.394531 115.039062 C 629.394531 115.21875 629.578125 115.21875 629.730469 115.21875 C 630.355469 115.21875 630.355469 115.296875 630.355469 115.414062 C 630.355469 115.492188 630.222656 116.007812 630.148438 116.304688 L 629.019531 120.804688 C 628.914062 121.246094 628.914062 121.4375 628.914062 121.660156 C 628.914062 122.988281 629.730469 123.753906 630.730469 123.753906 C 632.324219 123.753906 633.980469 121.917969 633.980469 120.042969 C 633.980469 118.761719 633.152344 117.921875 632.117188 117.921875 C 631.390625 117.921875 630.832031 118.386719 630.546875 118.632812 Z M 630.730469 123.390625 C 630.261719 123.390625 629.796875 123.027344 629.796875 122.085938 C 629.796875 121.734375 629.847656 121.414062 630.003906 120.792969 C 630.09375 120.417969 630.183594 120.054688 630.289062 119.679688 C 630.355469 119.449219 630.355469 119.421875 630.507812 119.226562 C 630.949219 118.683594 631.53125 118.285156 632.078125 118.285156 C 632.726562 118.285156 632.972656 118.917969 632.972656 119.5 C 632.972656 119.976562 632.6875 121.359375 632.296875 122.125 C 631.960938 122.820312 631.339844 123.390625 630.730469 123.390625 Z M 630.730469 123.390625 " fill-opacity="1" fill-rule="nonzero"/><g clip-path="url(#dddfc3606c)"><path fill="#000000" d="M 636.371094 113.925781 L 634.46875 113.925781 L 634.46875 114.519531 L 635.777344 114.519531 L 635.777344 126.261719 L 634.46875 126.261719 L 634.46875 126.855469 L 636.371094 126.855469 Z M 636.371094 113.925781 " fill-opacity="1" fill-rule="nonzero"/></g></svg>